<?xml version="1.0" encoding="UTF-8" standalone="no"?>
<!-- Created with Inkscape (http://www.inkscape.org/) -->

<svg
   xmlns:dc="http://purl.org/dc/elements/1.1/"
   xmlns:cc="http://creativecommons.org/ns#"
   xmlns:rdf="http://www.w3.org/1999/02/22-rdf-syntax-ns#"
   xmlns:svg="http://www.w3.org/2000/svg"
   xmlns="http://www.w3.org/2000/svg"
   xmlns:sodipodi="http://sodipodi.sourceforge.net/DTD/sodipodi-0.dtd"
   xmlns:inkscape="http://www.inkscape.org/namespaces/inkscape"
   width="203.2mm"
   height="128.5mm"
   viewBox="0 0 203.2 128.5"
   version="1.1"
   id="svg8"
   inkscape:version="0.92.4 5da689c313, 2019-01-14"
   sodipodi:docname="SidEx.svg">
  <defs
     id="defs2" />
  <sodipodi:namedview
     id="base"
     pagecolor="#ffffff"
     bordercolor="#666666"
     borderopacity="1.0"
     inkscape:pageopacity="0.0"
     inkscape:pageshadow="2"
     inkscape:zoom="0.7"
     inkscape:cx="146.3281"
     inkscape:cy="98.071044"
     inkscape:document-units="mm"
     inkscape:current-layer="layer1"
     showgrid="false"
     inkscape:window-width="1277"
     inkscape:window-height="749"
     inkscape:window-x="0"
     inkscape:window-y="0"
     inkscape:window-maximized="1" />
  <metadata
     id="metadata5">
    <rdf:RDF>
      <cc:Work
         rdf:about="">
        <dc:format>image/svg+xml</dc:format>
        <dc:type
           rdf:resource="http://purl.org/dc/dcmitype/StillImage" />
        <dc:title />
      </cc:Work>
    </rdf:RDF>
  </metadata>
  <g
     inkscape:groupmode="layer"
     id="layer4"
     inkscape:label="bg"
     style="display:inline">
    <rect
       style="fill:#917c6f;stroke-width:0.26458332"
       id="rect4320"
       width="206.375"
       height="130.77979"
       x="-1.1339288"
       y="-1.1458359" />
  </g>
  <g
     inkscape:label="text"
     inkscape:groupmode="layer"
     id="layer1"
     transform="translate(0,-168.5)"
     style="display:inline;opacity:1">
    <g
       aria-label="SidEx"
       style="font-style:normal;font-variant:normal;font-weight:bold;font-stretch:normal;font-size:10.58333302px;line-height:1.25;font-family:'DEC Terminal';-inkscape-font-specification:'DEC Terminal, Bold';font-variant-ligatures:normal;font-variant-caps:normal;font-variant-numeric:normal;font-feature-settings:normal;text-align:start;letter-spacing:0px;word-spacing:0px;writing-mode:lr-tb;text-anchor:start;display:inline;fill:#000000;fill-opacity:1;stroke:none;stroke-width:0.26458332"
       id="text3905">
      <path
         d="m 14.936658,178.29746 q 0,1.0697 -0.795817,1.63814 -0.790649,0.56328 -2.325439,0.56328 -1.400432,0 -2.1962487,-0.4961 Q 8.8233363,179.50669 8.59596,178.499 l 1.472778,-0.24288 q 0.149862,0.57877 0.583944,0.84232 0.434082,0.25839 1.204061,0.25839 1.596801,0 1.596801,-0.97152 0,-0.31006 -0.186035,-0.5116 -0.180867,-0.20153 -0.516764,-0.33589 -0.330729,-0.13436 -1.276408,-0.32557 -0.816487,-0.1912 -1.136881,-0.30489 -0.320394,-0.11885 -0.5787763,-0.27388 -0.2583822,-0.1602 -0.4392497,-0.38241 -0.1808675,-0.22221 -0.2842204,-0.52193 -0.098185,-0.29972 -0.098185,-0.6873 0,-0.98701 0.738973,-1.50895 0.7441404,-0.5271 2.1600744,-0.5271 1.353923,0 2.030884,0.42375 0.682129,0.42375 0.878499,1.40043 l -1.477946,0.20154 q -0.113688,-0.47026 -0.465088,-0.70797 -0.346232,-0.23771 -0.997355,-0.23771 -1.384928,0 -1.384928,0.86816 0,0.28423 0.144694,0.46509 0.149862,0.18087 0.43925,0.31006 0.289388,0.12402 1.173055,0.31523 1.049031,0.22221 1.498616,0.41341 0.454753,0.18603 0.718303,0.43925 0.263549,0.24805 0.403076,0.59945 0.139526,0.34623 0.139526,0.80098 z"
         style="font-style:normal;font-variant:normal;font-weight:bold;font-stretch:normal;font-size:10.58333302px;font-family:'DEC Terminal';-inkscape-font-specification:'DEC Terminal, Bold';font-variant-ligatures:normal;font-variant-caps:normal;font-variant-numeric:normal;font-feature-settings:normal;text-align:start;writing-mode:lr-tb;text-anchor:start;stroke-width:0.26458332"
         id="path4404"
         inkscape:connector-curvature="0" />
      <path
         d="m 16.099378,173.79644 v -1.0697 h 1.452108 v 1.0697 z m 0,6.59908 v -5.59139 h 1.452108 v 5.59139 z"
         style="font-style:normal;font-variant:normal;font-weight:bold;font-stretch:normal;font-size:10.58333302px;font-family:'DEC Terminal';-inkscape-font-specification:'DEC Terminal, Bold';font-variant-ligatures:normal;font-variant-caps:normal;font-variant-numeric:normal;font-feature-settings:normal;text-align:start;writing-mode:lr-tb;text-anchor:start;stroke-width:0.26458332"
         id="path4406"
         inkscape:connector-curvature="0" />
      <path
         d="m 22.657116,180.39552 q -0.02067,-0.0775 -0.05168,-0.38757 -0.02584,-0.31523 -0.02584,-0.52193 h -0.02067 q -0.470255,1.01286 -1.788004,1.01286 -0.976685,0 -1.508952,-0.75965 -0.532267,-0.76481 -0.532267,-2.13423 0,-1.3901 0.558105,-2.14458 0.563273,-0.75964 1.591634,-0.75964 0.594279,0 1.023194,0.24805 0.434082,0.24804 0.666626,0.73897 h 0.01034 l -0.01034,-0.91984 v -2.04122 h 1.452107 v 6.44922 q 0,0.51676 0.04134,1.21956 z m -0.06718,-2.8267 q 0,-0.90434 -0.304891,-1.39009 -0.299723,-0.49093 -0.888834,-0.49093 -0.583944,0 -0.868165,0.47542 -0.28422,0.47026 -0.28422,1.44178 0,1.90169 1.142049,1.90169 0.573609,0 0.888835,-0.50126 0.315226,-0.50643 0.315226,-1.43661 z"
         style="font-style:normal;font-variant:normal;font-weight:bold;font-stretch:normal;font-size:10.58333302px;font-family:'DEC Terminal';-inkscape-font-specification:'DEC Terminal, Bold';font-variant-ligatures:normal;font-variant-caps:normal;font-variant-numeric:normal;font-feature-settings:normal;text-align:start;writing-mode:lr-tb;text-anchor:start;stroke-width:0.26458332"
         id="path4408"
         inkscape:connector-curvature="0" />
      <path
         d="m 25.473481,180.39552 v -7.28121 h 5.725749 v 1.17823 h -4.201294 v 1.82934 h 3.886068 v 1.17822 h -3.886068 v 1.9172 h 4.413167 v 1.17822 z"
         style="font-style:normal;font-variant:normal;font-weight:bold;font-stretch:normal;font-size:10.58333302px;font-family:'DEC Terminal';-inkscape-font-specification:'DEC Terminal, Bold';font-variant-ligatures:normal;font-variant-caps:normal;font-variant-numeric:normal;font-feature-settings:normal;text-align:start;writing-mode:lr-tb;text-anchor:start;stroke-width:0.26458332"
         id="path4410"
         inkscape:connector-curvature="0" />
      <path
         d="m 36.06715,180.39552 -1.302246,-2.02571 -1.312581,2.02571 h -1.545126 l 2.046387,-2.88871 -1.948201,-2.70268 h 1.565795 l 1.193726,1.82935 1.188558,-1.82935 h 1.576131 l -1.948201,2.68718 2.061889,2.90421 z"
         style="font-style:normal;font-variant:normal;font-weight:bold;font-stretch:normal;font-size:10.58333302px;font-family:'DEC Terminal';-inkscape-font-specification:'DEC Terminal, Bold';font-variant-ligatures:normal;font-variant-caps:normal;font-variant-numeric:normal;font-feature-settings:normal;text-align:start;writing-mode:lr-tb;text-anchor:start;stroke-width:0.26458332"
         id="path4412"
         inkscape:connector-curvature="0" />
    </g>
    <g
       aria-label="Gate"
       style="font-style:normal;font-weight:normal;font-size:10.58333302px;line-height:1.25;font-family:sans-serif;letter-spacing:0px;word-spacing:0px;display:inline;fill:#000000;fill-opacity:1;stroke:none;stroke-width:0.26458332"
       id="text3909">
      <path
         d="m 5.5511359,251.38537 q 0,-0.94533 0.5071181,-1.46348 0.5071181,-0.51814 1.4248915,-0.51814 0.6449219,0 1.047309,0.21773 0.4023872,0.21773 0.6201172,0.69729 l -0.5016059,0.14883 q -0.1653646,-0.33073 -0.4575087,-0.48232 -0.289388,-0.15158 -0.722092,-0.15158 -0.6724826,0 -1.0280165,0.4079 -0.3555338,0.40514 -0.3555338,1.14377 0,0.73587 0.3775824,1.16306 0.3775825,0.42444 1.044553,0.42444 0.3803385,0 0.7083116,-0.11576 0.3307292,-0.11575 0.5346788,-0.31419 v -0.70004 H 7.5906325 v -0.44097 h 1.6453776 v 1.33945 q -0.3086806,0.31419 -0.757921,0.48782 -0.4464844,0.17088 -0.9701389,0.17088 -0.6090929,0 -1.0500651,-0.24253 -0.4409722,-0.24254 -0.6752387,-0.69729 -0.2315105,-0.45751 -0.2315105,-1.07487 z"
         style="font-style:normal;font-variant:normal;font-weight:normal;font-stretch:normal;font-size:5.64444447px;font-family:'DEC Terminal';-inkscape-font-specification:'DEC Terminal, Normal';font-variant-ligatures:normal;font-variant-caps:normal;font-variant-numeric:normal;font-feature-settings:normal;text-align:start;writing-mode:lr-tb;text-anchor:start;stroke-width:0.26458332"
         id="path4395"
         inkscape:connector-curvature="0" />
      <path
         d="m 10.79595,253.40006 q -0.449241,0 -0.675239,-0.23702 -0.2259984,-0.23702 -0.2259984,-0.65043 0,-0.46303 0.3031684,-0.71107 0.305924,-0.24805 0.983919,-0.26459 l 0.669727,-0.011 v -0.16261 q 0,-0.3638 -0.15434,-0.5209 -0.154341,-0.15709 -0.48507,-0.15709 -0.333485,0 -0.485069,0.113 -0.151585,0.11299 -0.181901,0.36104 l -0.518143,-0.0469 q 0.12678,-0.80478 1.196137,-0.80478 0.56224,0 0.846116,0.25908 0.283876,0.25631 0.283876,0.74414 v 1.28433 q 0,0.22048 0.05788,0.33348 0.05788,0.11025 0.220486,0.11025 0.07166,0 0.162609,-0.0193 v 0.30868 q -0.187413,0.0441 -0.383095,0.0441 -0.275607,0 -0.402387,-0.14332 -0.124023,-0.14607 -0.14056,-0.45475 h -0.01654 q -0.190169,0.34176 -0.443728,0.48507 -0.250803,0.14056 -0.611849,0.14056 z m 0.112999,-0.37207 q 0.272851,0 0.485069,-0.12402 0.212218,-0.12403 0.333485,-0.339 0.124024,-0.21773 0.124024,-0.44648 v -0.24529 l -0.542947,0.011 q -0.350022,0.006 -0.531923,0.0717 -0.179145,0.0661 -0.275608,0.20395 -0.09646,0.1378 -0.09646,0.36104 0,0.24254 0.129535,0.37483 0.132292,0.13229 0.374827,0.13229 z"
         style="font-style:normal;font-variant:normal;font-weight:normal;font-stretch:normal;font-size:5.64444447px;font-family:'DEC Terminal';-inkscape-font-specification:'DEC Terminal, Normal';font-variant-ligatures:normal;font-variant-caps:normal;font-variant-numeric:normal;font-feature-settings:normal;text-align:start;writing-mode:lr-tb;text-anchor:start;stroke-width:0.26458332"
         id="path4397"
         inkscape:connector-curvature="0" />
      <path
         d="m 14.323727,253.32289 q -0.24529,0.0661 -0.501605,0.0661 -0.595313,0 -0.595313,-0.67524 v -1.98989 H 12.8823 v -0.36104 h 0.363802 l 0.146072,-0.66697 h 0.330729 v 0.66697 h 0.551215 v 0.36104 h -0.551215 v 1.8824 q 0,0.21498 0.0689,0.30317 0.07166,0.0854 0.245291,0.0854 0.09922,0 0.286631,-0.0386 z"
         style="font-style:normal;font-variant:normal;font-weight:normal;font-stretch:normal;font-size:5.64444447px;font-family:'DEC Terminal';-inkscape-font-specification:'DEC Terminal, Normal';font-variant-ligatures:normal;font-variant-caps:normal;font-variant-numeric:normal;font-feature-settings:normal;text-align:start;writing-mode:lr-tb;text-anchor:start;stroke-width:0.26458332"
         id="path4399"
         inkscape:connector-curvature="0" />
      <path
         d="m 15.12299,251.95863 q 0,0.51263 0.212218,0.791 0.212218,0.27836 0.620117,0.27836 0.322461,0 0.515386,-0.12953 0.195682,-0.12954 0.264584,-0.32798 l 0.43546,0.12403 q -0.26734,0.70555 -1.21543,0.70555 -0.661458,0 -1.008724,-0.39412 -0.34451,-0.39412 -0.34451,-1.17133 0,-0.73863 0.34451,-1.13275 0.347266,-0.39412 0.989431,-0.39412 1.314649,0 1.314649,1.58475 v 0.0661 z m 1.615061,-0.38033 q -0.04134,-0.47129 -0.239779,-0.68627 -0.198437,-0.21773 -0.570508,-0.21773 -0.361046,0 -0.573264,0.24254 -0.209462,0.23978 -0.225998,0.66146 z"
         style="font-style:normal;font-variant:normal;font-weight:normal;font-stretch:normal;font-size:5.64444447px;font-family:'DEC Terminal';-inkscape-font-specification:'DEC Terminal, Normal';font-variant-ligatures:normal;font-variant-caps:normal;font-variant-numeric:normal;font-feature-settings:normal;text-align:start;writing-mode:lr-tb;text-anchor:start;stroke-width:0.26458332"
         id="path4401"
         inkscape:connector-curvature="0" />
    </g>
    <g
       aria-label="Freq"
       style="font-style:normal;font-variant:normal;font-weight:normal;font-stretch:normal;font-size:5.64444447px;line-height:1.25;font-family:'DEC Terminal';-inkscape-font-specification:'DEC Terminal, Normal';font-variant-ligatures:normal;font-variant-caps:normal;font-variant-numeric:normal;font-feature-settings:normal;text-align:start;letter-spacing:0px;word-spacing:0px;writing-mode:lr-tb;text-anchor:start;display:inline;fill:#000000;fill-opacity:1;stroke:none;stroke-width:0.26458332"
       id="text3909-5">
      <path
         d="m 25.825424,250.32271 v 1.44419 H 27.9917 v 0.43546 h -2.166276 v 1.57372 h -0.52641 v -3.88331 h 2.758832 v 0.42994 z"
         style="stroke-width:0.26458332"
         id="path4386"
         inkscape:connector-curvature="0" />
      <path
         d="m 28.677963,253.77608 v -2.28755 q 0,-0.31419 -0.01654,-0.69453 h 0.468533 q 0.02205,0.50712 0.02205,0.6091 h 0.01103 q 0.118511,-0.3831 0.272851,-0.52366 0.15434,-0.14056 0.43546,-0.14056 0.09922,0 0.201194,0.0276 v 0.45475 q -0.09922,-0.0276 -0.264583,-0.0276 -0.308681,0 -0.47129,0.26734 -0.162608,0.26459 -0.162608,0.76068 v 1.55443 z"
         style="stroke-width:0.26458332"
         id="path4388"
         inkscape:connector-curvature="0" />
      <path
         d="m 30.932434,252.38977 q 0,0.51263 0.212218,0.79099 0.212218,0.27837 0.620117,0.27837 0.322461,0 0.515386,-0.12954 0.195682,-0.12953 0.264584,-0.32797 l 0.43546,0.12402 q -0.26734,0.70556 -1.21543,0.70556 -0.661458,0 -1.008724,-0.39412 -0.34451,-0.39412 -0.34451,-1.17133 0,-0.73863 0.34451,-1.13275 0.347266,-0.39412 0.989431,-0.39412 1.314649,0 1.314649,1.58475 v 0.0661 z m 1.615061,-0.38034 q -0.04134,-0.47129 -0.239779,-0.68626 -0.198438,-0.21773 -0.570508,-0.21773 -0.361046,0 -0.573264,0.24253 -0.209462,0.23978 -0.225998,0.66146 z"
         style="stroke-width:0.26458332"
         id="path4390"
         inkscape:connector-curvature="0" />
      <path
         d="m 34.647624,253.8312 q -0.567751,0 -0.832335,-0.3831 -0.264583,-0.38309 -0.264583,-1.14928 0,-1.55994 1.096918,-1.55994 0.338998,0 0.559484,0.12127 0.220486,0.11851 0.369314,0.39687 h 0.0055 q 0,-0.0827 0.01103,-0.28387 0.01102,-0.20395 0.02205,-0.21773 h 0.476802 q -0.01929,0.16261 -0.01929,0.81304 v 3.37895 H 35.57642 v -1.20992 l 0.01102,-0.45199 h -0.0055 q -0.148828,0.2949 -0.366558,0.42168 -0.21773,0.12402 -0.567752,0.12402 z m 0.928798,-1.58199 q 0,-0.58153 -0.190169,-0.86265 -0.190169,-0.28112 -0.606337,-0.28112 -0.377582,0 -0.542947,0.28112 -0.165364,0.28112 -0.165364,0.89572 0,0.62563 0.165364,0.89573 0.168121,0.27009 0.537435,0.27009 0.42168,0 0.611849,-0.30041 0.190169,-0.30041 0.190169,-0.89848 z"
         style="stroke-width:0.26458332"
         id="path4392"
         inkscape:connector-curvature="0" />
    </g>
    <g
       aria-label="Wf"
       style="font-style:normal;font-variant:normal;font-weight:normal;font-stretch:normal;font-size:5.64444447px;line-height:1.25;font-family:'DEC Terminal';-inkscape-font-specification:'DEC Terminal, Normal';font-variant-ligatures:normal;font-variant-caps:normal;font-variant-numeric:normal;font-feature-settings:normal;text-align:start;letter-spacing:0px;word-spacing:0px;writing-mode:lr-tb;text-anchor:start;display:inline;fill:#000000;fill-opacity:1;stroke:none;stroke-width:0.26458332"
       id="text3909-4">
      <path
         d="m 50.923041,252.64215 h -0.628385 l -0.672483,-2.46669 q -0.06615,-0.23151 -0.192925,-0.82958 -0.07166,0.31971 -0.121268,0.53468 -0.04961,0.21498 -0.752408,2.76159 h -0.628386 l -1.143772,-3.88331 h 0.54846 l 0.697287,2.46669 q 0.124023,0.46302 0.228754,0.9536 0.06615,-0.30317 0.151585,-0.66146 0.08819,-0.35829 0.766189,-2.75883 h 0.504362 l 0.675238,2.41708 q 0.154341,0.59255 0.242535,1.00321 l 0.02481,-0.0965 q 0.07441,-0.31695 0.121267,-0.51539 0.04685,-0.20119 0.774458,-2.80844 h 0.548459 z"
         style="stroke-width:0.26458332"
         id="path4381"
         inkscape:connector-curvature="0" />
      <path
         d="m 53.078293,250.02112 v 2.62103 h -0.496094 v -2.62103 h -0.418924 v -0.36104 h 0.418924 v -0.33625 q 0,-0.40789 0.179145,-0.58704 0.179145,-0.17914 0.548459,-0.17914 0.206706,0 0.350022,0.0331 v 0.37758 q -0.124024,-0.0221 -0.220486,-0.0221 -0.190169,0 -0.275608,0.0965 -0.08544,0.0965 -0.08544,0.35002 v 0.26734 h 0.581532 v 0.36104 z"
         style="stroke-width:0.26458332"
         id="path4383"
         inkscape:connector-curvature="0" />
    </g>
    <g
       aria-label="PW"
       style="font-style:normal;font-variant:normal;font-weight:normal;font-stretch:normal;font-size:5.64444447px;line-height:1.25;font-family:'DEC Terminal';-inkscape-font-specification:'DEC Terminal, Normal';font-variant-ligatures:normal;font-variant-caps:normal;font-variant-numeric:normal;font-feature-settings:normal;text-align:start;letter-spacing:0px;word-spacing:0px;writing-mode:lr-tb;text-anchor:start;display:inline;fill:#000000;fill-opacity:1;stroke:none;stroke-width:0.26458332"
       id="text3909-8">
      <path
         d="m 69.502537,251.06133 q 0,0.55121 -0.361046,0.87643 -0.35829,0.32522 -0.975651,0.32522 h -1.141016 v 1.51308 h -0.52641 v -3.88331 h 1.634353 q 0.65319,0 1.01148,0.30592 0.35829,0.30593 0.35829,0.86266 z m -0.529167,0.006 q 0,-0.75241 -0.903993,-0.75241 h -1.044553 v 1.53238 h 1.066602 q 0.881944,0 0.881944,-0.77997 z"
         style="stroke-width:0.26458332"
         id="path4376"
         inkscape:connector-curvature="0" />
      <path
         d="m 73.970137,253.77606 h -0.628386 l -0.672482,-2.46669 q -0.06615,-0.23151 -0.192926,-0.82958 -0.07166,0.31971 -0.121267,0.53468 -0.04961,0.21498 -0.752409,2.76159 h -0.628385 l -1.143772,-3.88331 h 0.548459 l 0.697288,2.46669 q 0.124023,0.46302 0.228754,0.9536 0.06615,-0.30317 0.151584,-0.66146 0.0882,-0.35829 0.766189,-2.75883 h 0.504362 l 0.675239,2.41708 q 0.15434,0.59256 0.242535,1.00321 l 0.0248,-0.0965 q 0.07441,-0.31695 0.121268,-0.51539 0.04685,-0.20119 0.774457,-2.80844 h 0.548459 z"
         style="stroke-width:0.26458332"
         id="path4378"
         inkscape:connector-curvature="0" />
    </g>
    <g
       aria-label="Ring"
       style="font-style:normal;font-variant:normal;font-weight:normal;font-stretch:normal;font-size:5.64444447px;line-height:1.25;font-family:'DEC Terminal';-inkscape-font-specification:'DEC Terminal, Normal';font-variant-ligatures:normal;font-variant-caps:normal;font-variant-numeric:normal;font-feature-settings:normal;text-align:start;letter-spacing:0px;word-spacing:0px;writing-mode:lr-tb;text-anchor:start;display:inline;fill:#000000;fill-opacity:1;stroke:none;stroke-width:0.26458332"
       id="text3909-0"
       transform="translate(-2.2678571)">
      <path
         d="m 89.276203,253.39809 -1.008724,-1.61231 h -1.209917 v 1.61231 h -0.526411 v -3.88332 h 1.827279 q 0.655946,0 1.01148,0.29491 0.35829,0.29214 0.35829,0.81579 0,0.43271 -0.253559,0.72761 -0.250803,0.2949 -0.694531,0.37207 l 1.10243,1.67294 z m -0.07717,-2.7671 q 0,-0.339 -0.23151,-0.51539 -0.228754,-0.17915 -0.661458,-0.17915 h -1.248503 v 1.43316 h 1.270551 q 0.416168,0 0.642166,-0.19292 0.228754,-0.19568 0.228754,-0.5457 z"
         style="stroke-width:0.26458332"
         id="path4367"
         inkscape:connector-curvature="0" />
      <path
         d="m 90.524706,249.78211 v -0.47404 H 91.0208 v 0.47404 z m 0,3.61598 v -2.98208 H 91.0208 v 2.98208 z"
         style="stroke-width:0.26458332"
         id="path4369"
         inkscape:connector-curvature="0" />
      <path
         d="m 93.677657,253.39809 v -1.89067 q 0,-0.2949 -0.05788,-0.45751 -0.05788,-0.16261 -0.184657,-0.23427 -0.12678,-0.0717 -0.372071,-0.0717 -0.35829,0 -0.564995,0.2453 -0.206706,0.24529 -0.206706,0.68075 v 1.72806 h -0.496094 v -2.34542 q 0,-0.5209 -0.01654,-0.63666 h 0.468533 q 0.0028,0.0138 0.0055,0.0744 0.0028,0.0606 0.0055,0.14056 0.0055,0.0772 0.01102,0.2949 h 0.0083 q 0.170876,-0.30868 0.394119,-0.43546 0.225998,-0.12954 0.559483,-0.12954 0.490582,0 0.71658,0.24529 0.228754,0.24254 0.228754,0.80478 v 1.98713 z"
         style="stroke-width:0.26458332"
         id="path4371"
         inkscape:connector-curvature="0" />
      <path
         d="m 96.056151,254.56942 q -0.487825,0 -0.777213,-0.19293 -0.289389,-0.19017 -0.372071,-0.54294 l 0.49885,-0.0717 q 0.04961,0.2067 0.21773,0.31695 0.170877,0.113 0.446484,0.113 0.741385,0 0.741385,-0.86817 v -0.47955 h -0.0055 q -0.14056,0.28663 -0.385851,0.4327 -0.245291,0.14332 -0.573264,0.14332 -0.548459,0 -0.80753,-0.36381 -0.256315,-0.3638 -0.256315,-1.14377 0,-0.79099 0.275607,-1.16582 0.278364,-0.37758 0.84336,-0.37758 0.316949,0 0.548459,0.14607 0.234266,0.14332 0.361046,0.41066 h 0.0055 q 0,-0.0827 0.01102,-0.28664 0.01103,-0.20395 0.02205,-0.22324 h 0.471289 q -0.01654,0.14883 -0.01654,0.61736 v 2.27928 q 0,1.25677 -1.248503,1.25677 z m 0.755165,-2.66237 q 0,-0.3638 -0.09922,-0.62563 -0.09922,-0.26458 -0.28112,-0.40239 -0.179145,-0.14056 -0.407899,-0.14056 -0.380338,0 -0.553971,0.27561 -0.173633,0.27561 -0.173633,0.89297 0,0.61185 0.162608,0.87919 0.162609,0.26734 0.556728,0.26734 0.234266,0 0.416167,-0.13781 0.181901,-0.1378 0.28112,-0.39412 0.09922,-0.25907 0.09922,-0.6146 z"
         style="stroke-width:0.26458332"
         id="path4373"
         inkscape:connector-curvature="0" />
    </g>
    <g
       aria-label="Sync"
       style="font-style:normal;font-variant:normal;font-weight:normal;font-stretch:normal;font-size:5.64444447px;line-height:1.25;font-family:'DEC Terminal';-inkscape-font-specification:'DEC Terminal, Normal';font-variant-ligatures:normal;font-variant-caps:normal;font-variant-numeric:normal;font-feature-settings:normal;text-align:start;letter-spacing:0px;word-spacing:0px;writing-mode:lr-tb;text-anchor:start;display:inline;fill:#000000;fill-opacity:1;stroke:none;stroke-width:0.26458332"
       id="text3909-9"
       transform="translate(1.5979314,2.0213462)">
      <path
         d="m 109.98457,251.57004 q 0,0.53743 -0.42168,0.83233 -0.41892,0.2949 -1.18235,0.2949 -1.41938,0 -1.64538,-0.98667 l 0.50987,-0.10198 q 0.0882,0.35002 0.37483,0.51539 0.28663,0.16261 0.77997,0.16261 0.50987,0 0.78548,-0.17364 0.27836,-0.17638 0.27836,-0.51538 0,-0.19017 -0.0882,-0.30868 -0.0854,-0.11851 -0.24253,-0.19568 -0.1571,-0.0772 -0.37483,-0.12954 -0.21773,-0.0524 -0.48231,-0.113 -0.46027,-0.10197 -0.70005,-0.20395 -0.23702,-0.10197 -0.37482,-0.226 -0.13781,-0.12678 -0.21222,-0.2949 -0.0717,-0.16812 -0.0717,-0.38585 0,-0.49885 0.38034,-0.76894 0.38309,-0.2701 1.09416,-0.2701 0.66146,0 1.01148,0.20395 0.35002,0.20119 0.49058,0.68902 l -0.51814,0.0909 q -0.0854,-0.30868 -0.32522,-0.44648 -0.23978,-0.14056 -0.66421,-0.14056 -0.46578,0 -0.71107,0.15434 -0.24529,0.15434 -0.24529,0.46026 0,0.17915 0.0937,0.29766 0.0965,0.11575 0.2756,0.19844 0.17915,0.0799 0.71383,0.19843 0.17914,0.0413 0.35553,0.0854 0.17915,0.0413 0.34176,0.10198 0.1626,0.0579 0.30316,0.1378 0.14332,0.0799 0.24805,0.19568 0.10473,0.11576 0.16261,0.27285 0.0606,0.1571 0.0606,0.36932 z"
         style="stroke-width:0.26458332"
         id="path4358"
         inkscape:connector-curvature="0" />
      <path
         d="m 110.77557,253.81348 q -0.20395,0 -0.34176,-0.0303 v -0.37207 q 0.10473,0.0165 0.23151,0.0165 0.46302,0 0.73312,-0.68075 l 0.0469,-0.11851 -1.18235,-2.96829 h 0.52916 l 0.62839,1.64813 q 0.0138,0.0386 0.0331,0.0937 0.0193,0.0524 0.12403,0.35829 0.10473,0.30592 0.11299,0.34175 l 0.19293,-0.54295 0.65319,-1.89893 h 0.52365 l -1.14652,2.98207 q -0.18466,0.4768 -0.34451,0.70831 -0.15986,0.23427 -0.35554,0.34727 -0.19292,0.11575 -0.43821,0.11575 z"
         style="stroke-width:0.26458332"
         id="path4360"
         inkscape:connector-curvature="0" />
      <path
         d="m 115.34514,252.64215 v -1.89067 q 0,-0.2949 -0.0579,-0.45751 -0.0579,-0.1626 -0.18465,-0.23426 -0.12678,-0.0717 -0.37207,-0.0717 -0.35829,0 -0.565,0.24529 -0.2067,0.24529 -0.2067,0.68075 v 1.72806 h -0.4961 v -2.34542 q 0,-0.5209 -0.0165,-0.63665 h 0.46853 q 0.003,0.0138 0.006,0.0744 0.003,0.0606 0.006,0.14056 0.006,0.0772 0.011,0.2949 h 0.008 q 0.17088,-0.30868 0.39412,-0.43546 0.226,-0.12954 0.55949,-0.12954 0.49058,0 0.71658,0.2453 0.22875,0.24253 0.22875,0.80477 v 1.98713 z"
         style="stroke-width:0.26458332"
         id="path4362"
         inkscape:connector-curvature="0" />
      <path
         d="m 116.97123,251.13733 q 0,0.59532 0.18741,0.88195 0.18741,0.28663 0.565,0.28663 0.26458,0 0.44097,-0.14332 0.17914,-0.14331 0.22048,-0.44097 l 0.50161,0.0331 q -0.0579,0.42995 -0.36656,0.68627 -0.30868,0.25631 -0.78272,0.25631 -0.62563,0 -0.95636,-0.39412 -0.32798,-0.39687 -0.32798,-1.15479 0,-0.75241 0.33073,-1.14653 0.33073,-0.39688 0.94809,-0.39688 0.45751,0 0.75792,0.23703 0.30317,0.23702 0.38034,0.65319 l -0.50987,0.0386 q -0.0386,-0.24804 -0.19568,-0.39412 -0.1571,-0.14607 -0.44649,-0.14607 -0.39412,0 -0.5705,0.26183 -0.17639,0.26183 -0.17639,0.88194 z"
         style="stroke-width:0.26458332"
         id="path4364"
         inkscape:connector-curvature="0" />
    </g>
    <g
       aria-label="A"
       style="font-style:normal;font-variant:normal;font-weight:normal;font-stretch:normal;font-size:10.58333302px;line-height:1.25;font-family:sans-serif;-inkscape-font-specification:'sans-serif, Normal';font-variant-ligatures:normal;font-variant-caps:normal;font-variant-numeric:normal;font-feature-settings:normal;text-align:start;letter-spacing:0px;word-spacing:0px;writing-mode:lr-tb;text-anchor:start;display:inline;fill:#000000;fill-opacity:1;stroke:none;stroke-width:0.26458332"
       id="text3909-3"
       transform="translate(-9.0714286,0.37797619)">
      <path
         d="m 135.56602,253.39809 -0.83199,-2.12907 h -3.31762 l -0.83716,2.12907 h -1.02319 l 2.97139,-7.28121 h 1.12138 l 2.92488,7.28121 z m -2.4908,-6.53707 -0.0465,0.14469 q -0.12919,0.42892 -0.3824,1.10071 l -0.93018,2.39262 h 2.72335 l -0.93534,-2.40296 q -0.1447,-0.35656 -0.28939,-0.80615 z"
         style="stroke-width:0.26458332"
         id="path4355"
         inkscape:connector-curvature="0" />
    </g>
    <g
       aria-label="D"
       style="font-style:normal;font-variant:normal;font-weight:normal;font-stretch:normal;font-size:10.58333302px;line-height:1.25;font-family:sans-serif;-inkscape-font-specification:'sans-serif, Normal';font-variant-ligatures:normal;font-variant-caps:normal;font-variant-numeric:normal;font-feature-settings:normal;text-align:start;letter-spacing:0px;word-spacing:0px;writing-mode:lr-tb;text-anchor:start;display:inline;fill:#000000;fill-opacity:1;stroke:none;stroke-width:0.26458332"
       id="text3909-83"
       transform="translate(-5.6696429)">
      <path
         d="m 150.27906,250.4385 q 0,1.12655 -0.43925,1.97404 -0.43925,0.84233 -1.2454,1.29191 -0.80615,0.44959 -1.86035,0.44959 h -2.72335 v -7.28121 h 2.40812 q 1.85002,0 2.85254,0.93017 1.00769,0.92501 1.00769,2.6355 z m -0.99218,0 q 0,-1.35392 -0.74415,-2.06189 -0.73897,-0.71313 -2.14457,-0.71313 h -1.40043 v 5.69991 h 1.62264 q 0.80099,0 1.4056,-0.3514 0.60978,-0.3514 0.93534,-1.01286 0.32557,-0.66146 0.32557,-1.56063 z"
         style="stroke-width:0.26458332"
         id="path4352"
         inkscape:connector-curvature="0" />
    </g>
    <g
       aria-label="S"
       style="font-style:normal;font-variant:normal;font-weight:normal;font-stretch:normal;font-size:10.58333302px;line-height:1.25;font-family:sans-serif;-inkscape-font-specification:'sans-serif, Normal';font-variant-ligatures:normal;font-variant-caps:normal;font-variant-numeric:normal;font-feature-settings:normal;text-align:start;letter-spacing:0px;word-spacing:0px;writing-mode:lr-tb;text-anchor:start;display:inline;fill:#000000;fill-opacity:1;stroke:none;stroke-width:0.26458332"
       id="text3909-2">
      <path
         d="m 161.43304,251.38787 q 0,1.00769 -0.79065,1.56063 -0.78548,0.55294 -2.21691,0.55294 -2.66134,0 -3.08509,-1.85002 l 0.95602,-0.1912 q 0.16536,0.65629 0.7028,0.96635 0.53743,0.30489 1.46244,0.30489 0.95601,0 1.47278,-0.32556 0.52193,-0.33073 0.52193,-0.96635 0,-0.35657 -0.16536,-0.57878 -0.1602,-0.2222 -0.45476,-0.3669 -0.29455,-0.14469 -0.7028,-0.24288 -0.40824,-0.0982 -0.90433,-0.21187 -0.863,-0.1912 -1.31259,-0.38241 -0.44441,-0.1912 -0.7028,-0.42374 -0.25838,-0.23772 -0.3979,-0.55294 -0.13436,-0.31523 -0.13436,-0.72347 0,-0.93535 0.71313,-1.44177 0.7183,-0.50643 2.05156,-0.50643 1.24023,0 1.89652,0.3824 0.65629,0.37724 0.91984,1.29191 l -0.97151,0.17054 q -0.1602,-0.57878 -0.60979,-0.83716 -0.44958,-0.26355 -1.2454,-0.26355 -0.87333,0 -1.33325,0.28939 -0.45992,0.28938 -0.45992,0.86299 0,0.3359 0.1757,0.55811 0.18087,0.21704 0.51676,0.37207 0.3359,0.14986 1.33842,0.37207 0.3359,0.0775 0.66663,0.16019 0.3359,0.0775 0.64079,0.19121 0.30489,0.10852 0.56844,0.25838 0.26871,0.14986 0.46509,0.3669 0.19637,0.21704 0.30489,0.5116 0.11368,0.29455 0.11368,0.69246 z"
         style="stroke-width:0.26458332"
         id="path4349"
         inkscape:connector-curvature="0" />
    </g>
    <g
       aria-label="1"
       style="font-style:normal;font-variant:normal;font-weight:normal;font-stretch:normal;font-size:5.64444447px;line-height:1.25;font-family:'DEC Terminal';-inkscape-font-specification:'DEC Terminal, Normal';font-variant-ligatures:normal;font-variant-caps:normal;font-variant-numeric:normal;font-feature-settings:normal;text-align:start;letter-spacing:0px;word-spacing:0px;writing-mode:lr-tb;text-anchor:start;display:inline;fill:#000000;fill-opacity:1;stroke:none;stroke-width:0.26458332"
       id="text3909-57">
      <path
         d="m 1.8314151,263.98141 v -0.42167 h 0.9894314 v -2.98759 l -0.8764322,0.62563 v -0.46854 l 0.9177734,-0.63114 h 0.4575087 v 3.46164 h 0.9453342 v 0.42167 z"
         style="stroke-width:0.26458332"
         id="path4346"
         inkscape:connector-curvature="0" />
    </g>
    <g
       aria-label="2"
       style="font-style:normal;font-variant:normal;font-weight:normal;font-stretch:normal;font-size:5.64444447px;line-height:1.25;font-family:'DEC Terminal';-inkscape-font-specification:'DEC Terminal, Normal';font-variant-ligatures:normal;font-variant-caps:normal;font-variant-numeric:normal;font-feature-settings:normal;text-align:start;letter-spacing:0px;word-spacing:0px;writing-mode:lr-tb;text-anchor:start;display:inline;fill:#000000;fill-opacity:1;stroke:none;stroke-width:0.26458332"
       id="text3909-57-9">
      <path
         d="m 2.0144999,276.83124 v -0.35002 q 0.1405599,-0.32246 0.3417535,-0.56776 0.2039497,-0.24804 0.4271919,-0.44648 0.2232422,-0.20119 0.4409722,-0.37207 0.2204861,-0.17088 0.396875,-0.34175 0.1763889,-0.17088 0.2838759,-0.35829 0.110243,-0.18742 0.110243,-0.42444 0,-0.3197 -0.1874132,-0.49609 -0.1874132,-0.17639 -0.5208984,-0.17639 -0.3169488,0 -0.5236545,0.17363 -0.2039497,0.17088 -0.2397787,0.48231 l -0.507118,-0.0469 q 0.055121,-0.46578 0.3941189,-0.74138 Q 2.772421,272.89 3.3070998,272.89 q 0.5870443,0 0.901237,0.27836 0.3169487,0.27561 0.3169487,0.78548 0,0.226 -0.1047309,0.44924 -0.1019748,0.22325 -0.3059244,0.44649 -0.2039497,0.22324 -0.7799697,0.69177 -0.3169487,0.25908 -0.5043619,0.46854 -0.1874132,0.2067 -0.2700955,0.39963 h 2.0257161 v 0.42168 z"
         style="stroke-width:0.26458332"
         id="path4343"
         inkscape:connector-curvature="0" />
    </g>
    <g
       aria-label="3"
       style="font-style:normal;font-variant:normal;font-weight:normal;font-stretch:normal;font-size:5.64444447px;line-height:1.25;font-family:'DEC Terminal';-inkscape-font-specification:'DEC Terminal, Normal';font-variant-ligatures:normal;font-variant-caps:normal;font-variant-numeric:normal;font-feature-settings:normal;text-align:start;letter-spacing:0px;word-spacing:0px;writing-mode:lr-tb;text-anchor:start;display:inline;fill:#000000;fill-opacity:1;stroke:none;stroke-width:0.26458332"
       id="text3909-57-1">
      <path
         d="m 4.6217454,289.36627 q 0,0.53744 -0.3417535,0.83234 -0.3417535,0.2949 -0.9756511,0.2949 -0.5898003,0 -0.9425781,-0.26459 -0.3500217,-0.26734 -0.4161675,-0.78823 l 0.5126302,-0.0469 q 0.099219,0.68902 0.8461154,0.68902 0.3748264,0 0.5870443,-0.18466 0.214974,-0.18465 0.214974,-0.54846 0,-0.31694 -0.2452908,-0.49333 -0.2425347,-0.17915 -0.7027995,-0.17915 H 2.877149 v -0.42995 h 0.2700955 q 0.4078993,0 0.6311415,-0.17638 0.2259982,-0.17915 0.2259982,-0.49334 0,-0.31144 -0.1846571,-0.49058 -0.181901,-0.1819 -0.542947,-0.1819 -0.3279731,0 -0.5319228,0.16812 -0.2011935,0.16812 -0.2342665,0.47404 l -0.4988498,-0.0386 q 0.055122,-0.47681 0.3941189,-0.74414 0.3417535,-0.26734 0.8764323,-0.26734 0.5842882,0 0.9067492,0.27285 0.325217,0.27009 0.325217,0.75516 0,0.37207 -0.2094618,0.60634 -0.2067058,0.23151 -0.6035808,0.31419 v 0.011 q 0.4354601,0.0469 0.6779948,0.29214 0.2425348,0.24529 0.2425348,0.61736 z"
         style="stroke-width:0.26458332"
         id="path4340"
         inkscape:connector-curvature="0" />
    </g>
    <g
       aria-label="R"
       style="font-style:normal;font-variant:normal;font-weight:normal;font-stretch:normal;font-size:10.58333302px;line-height:1.25;font-family:sans-serif;-inkscape-font-specification:'sans-serif, Normal';font-variant-ligatures:normal;font-variant-caps:normal;font-variant-numeric:normal;font-feature-settings:normal;text-align:start;letter-spacing:0px;word-spacing:0px;writing-mode:lr-tb;text-anchor:start;display:inline;fill:#000000;fill-opacity:1;stroke:none;stroke-width:0.26458332"
       id="text3909-2-9">
      <path
         d="m 178.22275,253.20836 -1.89136,-3.02307 h -2.2686 v 3.02307 h -0.98701 v -7.28121 h 3.42614 q 1.2299,0 1.89653,0.55294 0.67179,0.54777 0.67179,1.52962 0,0.81132 -0.47542,1.36426 -0.47026,0.55294 -1.30225,0.69763 l 2.06706,3.13676 z m -0.1447,-5.18831 q 0,-0.63562 -0.43408,-0.96635 -0.42891,-0.3359 -1.24023,-0.3359 h -2.34095 v 2.68717 h 2.38229 q 0.78031,0 1.20406,-0.36173 0.42891,-0.3669 0.42891,-1.02319 z"
         style="stroke-width:0.26458332"
         id="path4337"
         inkscape:connector-curvature="0" />
    </g>
    <g
       aria-label="Filter?"
       style="font-style:normal;font-variant:normal;font-weight:normal;font-stretch:normal;font-size:5.64444447px;line-height:1.25;font-family:'DEC Terminal';-inkscape-font-specification:'DEC Terminal, Normal';font-variant-ligatures:normal;font-variant-caps:normal;font-variant-numeric:normal;font-feature-settings:normal;text-align:start;letter-spacing:0px;word-spacing:0px;writing-mode:lr-tb;text-anchor:start;display:inline;fill:#000000;fill-opacity:1;stroke:none;stroke-width:0.26458332"
       id="text3909-9-4">
      <path
         d="m 186.26687,249.76459 v 1.44419 h 2.16627 v 0.43546 h -2.16627 v 1.57372 h -0.52641 v -3.88332 h 2.75883 v 0.42995 z"
         style="stroke-width:0.26458332"
         id="path4322"
         inkscape:connector-curvature="0" />
      <path
         d="m 189.10563,249.60198 v -0.47404 h 0.49609 v 0.47404 z m 0,3.61598 v -2.98208 h 0.49609 v 2.98208 z"
         style="stroke-width:0.26458332"
         id="path4324"
         inkscape:connector-curvature="0" />
      <path
         d="m 190.36515,253.21796 v -4.09002 h 0.4961 v 4.09002 z"
         style="stroke-width:0.26458332"
         id="path4326"
         inkscape:connector-curvature="0" />
      <path
         d="m 192.76845,253.19591 q -0.24529,0.0661 -0.5016,0.0661 -0.59532,0 -0.59532,-0.67523 v -1.98989 h -0.34451 v -0.36105 h 0.36381 l 0.14607,-0.66697 h 0.33073 v 0.66697 h 0.55121 v 0.36105 h -0.55121 v 1.8824 q 0,0.21497 0.0689,0.30317 0.0717,0.0854 0.24529,0.0854 0.0992,0 0.28663,-0.0386 z"
         style="stroke-width:0.26458332"
         id="path4328"
         inkscape:connector-curvature="0" />
      <path
         d="m 193.56771,251.83165 q 0,0.51263 0.21222,0.79099 0.21222,0.27837 0.62012,0.27837 0.32246,0 0.51538,-0.12954 0.19569,-0.12953 0.26459,-0.32797 l 0.43546,0.12402 q -0.26734,0.70556 -1.21543,0.70556 -0.66146,0 -1.00873,-0.39412 -0.34451,-0.39412 -0.34451,-1.17133 0,-0.73863 0.34451,-1.13275 0.34727,-0.39412 0.98944,-0.39412 1.31464,0 1.31464,1.58474 v 0.0661 z m 1.61506,-0.38034 q -0.0413,-0.47129 -0.23977,-0.68626 -0.19844,-0.21773 -0.57051,-0.21773 -0.36105,0 -0.57327,0.24253 -0.20946,0.23978 -0.22599,0.66146 z"
         style="stroke-width:0.26458332"
         id="path4330"
         inkscape:connector-curvature="0" />
      <path
         d="m 196.34033,253.21796 v -2.28755 q 0,-0.31419 -0.0165,-0.69453 h 0.46853 q 0.0221,0.50712 0.0221,0.60909 h 0.011 q 0.11851,-0.38309 0.27285,-0.52365 0.15434,-0.14056 0.43546,-0.14056 0.0992,0 0.20119,0.0276 v 0.45475 q -0.0992,-0.0276 -0.26458,-0.0276 -0.30868,0 -0.47129,0.26734 -0.16261,0.26459 -0.16261,0.76068 v 1.55443 z"
         style="stroke-width:0.26458332"
         id="path4332"
         inkscape:connector-curvature="0" />
      <path
         d="m 200.76383,250.37369 q 0,0.2067 -0.0606,0.36931 -0.0606,0.16261 -0.17363,0.30041 -0.113,0.13781 -0.36931,0.32522 l -0.22049,0.16261 q -0.19844,0.14331 -0.2949,0.30317 -0.0965,0.15709 -0.0992,0.34451 h -0.48231 q 0.006,-0.19017 0.0579,-0.33349 0.0551,-0.14332 0.14056,-0.25356 0.0854,-0.11024 0.19292,-0.19568 0.10749,-0.0882 0.21773,-0.16536 0.11024,-0.0799 0.21498,-0.1571 0.10748,-0.0799 0.19017,-0.17639 0.0827,-0.0965 0.13229,-0.21773 0.0524,-0.12127 0.0524,-0.28388 0,-0.31419 -0.21497,-0.49609 -0.21222,-0.1819 -0.59807,-0.1819 -0.38585,0 -0.61185,0.19292 -0.226,0.19293 -0.26458,0.52917 l -0.50712,-0.0331 q 0.0717,-0.5457 0.42995,-0.83785 0.35829,-0.29214 0.94809,-0.29214 0.6146,0 0.96738,0.29214 0.35278,0.28939 0.35278,0.80478 z m -1.72255,2.84427 v -0.55397 h 0.53744 v 0.55397 z"
         style="stroke-width:0.26458332"
         id="path4334"
         inkscape:connector-curvature="0" />
    </g>
    <g
       aria-label="Volume"
       style="font-style:normal;font-variant:normal;font-weight:normal;font-stretch:normal;font-size:5.64444447px;line-height:1.25;font-family:'DEC Terminal';-inkscape-font-specification:'DEC Terminal, Normal';font-variant-ligatures:normal;font-variant-caps:normal;font-variant-numeric:normal;font-feature-settings:normal;text-align:start;letter-spacing:0px;word-spacing:0px;writing-mode:lr-tb;text-anchor:start;fill:#000000;fill-opacity:1;stroke:none;stroke-width:0.26458332"
       id="text4483">
      <path
         d="m 111.01238,193.81248 h -0.5457 l -1.58474,-3.88331 h 0.55397 l 1.07487,2.73403 0.23151,0.68626 0.23151,-0.68626 1.06936,-2.73403 h 0.55397 z"
         style="font-style:normal;font-variant:normal;font-weight:normal;font-stretch:normal;font-size:5.64444447px;font-family:'DEC Terminal';-inkscape-font-specification:'DEC Terminal, Normal';font-variant-ligatures:normal;font-variant-caps:normal;font-variant-numeric:normal;font-feature-settings:normal;text-align:start;writing-mode:lr-tb;text-anchor:start;stroke-width:0.26458332"
         id="path4575"
         inkscape:connector-curvature="0" />
      <path
         d="m 115.22091,192.31869 q 0,0.78273 -0.34451,1.16582 -0.34451,0.3831 -1.00045,0.3831 -0.65319,0 -0.98668,-0.39688 -0.33348,-0.39963 -0.33348,-1.15204 0,-1.5434 1.33669,-1.5434 0.68351,0 1.00597,0.37758 0.32246,0.37483 0.32246,1.16582 z m -0.5209,0 q 0,-0.61736 -0.18465,-0.89572 -0.1819,-0.28112 -0.61461,-0.28112 -0.43546,0 -0.63114,0.28663 -0.19293,0.28387 -0.19293,0.89021 0,0.5898 0.19017,0.88746 0.19293,0.2949 0.60358,0.2949 0.44649,0 0.63666,-0.28663 0.19292,-0.28664 0.19292,-0.89573 z"
         style="font-style:normal;font-variant:normal;font-weight:normal;font-stretch:normal;font-size:5.64444447px;font-family:'DEC Terminal';-inkscape-font-specification:'DEC Terminal, Normal';font-variant-ligatures:normal;font-variant-caps:normal;font-variant-numeric:normal;font-feature-settings:normal;text-align:start;writing-mode:lr-tb;text-anchor:start;stroke-width:0.26458332"
         id="path4577"
         inkscape:connector-curvature="0" />
      <path
         d="m 115.84103,193.81248 v -4.09001 h 0.49609 v 4.09001 z"
         style="font-style:normal;font-variant:normal;font-weight:normal;font-stretch:normal;font-size:5.64444447px;font-family:'DEC Terminal';-inkscape-font-specification:'DEC Terminal, Normal';font-variant-ligatures:normal;font-variant-caps:normal;font-variant-numeric:normal;font-feature-settings:normal;text-align:start;writing-mode:lr-tb;text-anchor:start;stroke-width:0.26458332"
         id="path4579"
         inkscape:connector-curvature="0" />
      <path
         d="m 117.58287,190.83041 v 1.89067 q 0,0.2949 0.0579,0.45751 0.0579,0.16261 0.18465,0.23426 0.12678,0.0717 0.37207,0.0717 0.35829,0 0.565,-0.24529 0.20671,-0.24529 0.20671,-0.68075 v -1.72806 h 0.49609 v 2.34542 q 0,0.5209 0.0165,0.63665 h -0.46854 q -0.003,-0.0138 -0.006,-0.0744 -0.003,-0.0606 -0.008,-0.1378 -0.003,-0.0799 -0.008,-0.29766 h -0.008 q -0.17088,0.30868 -0.39688,0.43822 -0.22324,0.12678 -0.55673,0.12678 -0.49058,0 -0.71933,-0.24254 -0.226,-0.24529 -0.226,-0.80753 v -1.98713 z"
         style="font-style:normal;font-variant:normal;font-weight:normal;font-stretch:normal;font-size:5.64444447px;font-family:'DEC Terminal';-inkscape-font-specification:'DEC Terminal, Normal';font-variant-ligatures:normal;font-variant-caps:normal;font-variant-numeric:normal;font-feature-settings:normal;text-align:start;writing-mode:lr-tb;text-anchor:start;stroke-width:0.26458332"
         id="path4581"
         inkscape:connector-curvature="0" />
      <path
         d="m 121.97606,193.81248 v -1.89066 q 0,-0.43271 -0.11852,-0.59807 -0.11851,-0.16537 -0.42719,-0.16537 -0.31695,0 -0.5016,0.24254 -0.18466,0.24253 -0.18466,0.6835 v 1.72806 h -0.49334 v -2.34542 q 0,-0.52089 -0.0165,-0.63665 h 0.46854 q 0.003,0.0138 0.006,0.0744 0.003,0.0606 0.006,0.14056 0.006,0.0772 0.011,0.2949 h 0.008 q 0.15986,-0.31694 0.36656,-0.44097 0.20671,-0.12402 0.50436,-0.12402 0.339,0 0.53468,0.13505 0.19844,0.13504 0.27561,0.42994 h 0.008 q 0.15434,-0.30041 0.37207,-0.4327 0.22049,-0.13229 0.53192,-0.13229 0.452,0 0.65595,0.24529 0.2067,0.24529 0.2067,0.80477 v 1.98713 h -0.49058 v -1.89066 q 0,-0.43271 -0.11851,-0.59807 -0.11851,-0.16537 -0.42719,-0.16537 -0.32522,0 -0.50712,0.24254 -0.17914,0.23978 -0.17914,0.6835 v 1.72806 z"
         style="font-style:normal;font-variant:normal;font-weight:normal;font-stretch:normal;font-size:5.64444447px;font-family:'DEC Terminal';-inkscape-font-specification:'DEC Terminal, Normal';font-variant-ligatures:normal;font-variant-caps:normal;font-variant-numeric:normal;font-feature-settings:normal;text-align:start;writing-mode:lr-tb;text-anchor:start;stroke-width:0.26458332"
         id="path4583"
         inkscape:connector-curvature="0" />
      <path
         d="m 125.32744,192.42618 q 0,0.51263 0.21222,0.79099 0.21222,0.27837 0.62012,0.27837 0.32246,0 0.51539,-0.12954 0.19568,-0.12954 0.26458,-0.32797 l 0.43546,0.12402 q -0.26734,0.70556 -1.21543,0.70556 -0.66146,0 -1.00873,-0.39412 -0.3445,-0.39412 -0.3445,-1.17134 0,-0.73862 0.3445,-1.13274 0.34727,-0.39412 0.98944,-0.39412 1.31464,0 1.31464,1.58474 v 0.0661 z m 1.61506,-0.38034 q -0.0413,-0.47129 -0.23977,-0.68626 -0.19844,-0.21773 -0.57051,-0.21773 -0.36105,0 -0.57327,0.24253 -0.20946,0.23978 -0.22599,0.66146 z"
         style="font-style:normal;font-variant:normal;font-weight:normal;font-stretch:normal;font-size:5.64444447px;font-family:'DEC Terminal';-inkscape-font-specification:'DEC Terminal, Normal';font-variant-ligatures:normal;font-variant-caps:normal;font-variant-numeric:normal;font-feature-settings:normal;text-align:start;writing-mode:lr-tb;text-anchor:start;stroke-width:0.26458332"
         id="path4585"
         inkscape:connector-curvature="0" />
    </g>
    <g
       aria-label="Master"
       style="font-style:normal;font-variant:normal;font-weight:normal;font-stretch:normal;font-size:5.64444447px;line-height:1.25;font-family:'DEC Terminal';-inkscape-font-specification:'DEC Terminal, Normal';font-variant-ligatures:normal;font-variant-caps:normal;font-variant-numeric:normal;font-feature-settings:normal;text-align:start;letter-spacing:0px;word-spacing:0px;writing-mode:lr-tb;text-anchor:start;fill:#000000;fill-opacity:1;stroke:none;stroke-width:0.26458332"
       id="text4487">
      <path
         d="m 107.33027,177.55952 v -2.59071 q 0,-0.42995 0.0248,-0.82682 -0.13504,0.49334 -0.24253,0.7717 l -1.00321,2.64583 h -0.36932 l -1.01699,-2.64583 -0.15434,-0.46853 -0.091,-0.30317 0.008,0.30592 0.011,0.5209 v 2.59071 h -0.46853 v -3.88331 h 0.69177 l 1.03353,2.69269 q 0.0551,0.16261 0.10473,0.35002 0.0524,0.18466 0.0689,0.26734 0.022,-0.11024 0.0909,-0.33348 0.0717,-0.226 0.0965,-0.28388 l 1.01423,-2.69269 h 0.67524 v 3.88331 z"
         style="font-style:normal;font-variant:normal;font-weight:normal;font-stretch:normal;font-size:5.64444447px;font-family:'DEC Terminal';-inkscape-font-specification:'DEC Terminal, Normal';font-variant-ligatures:normal;font-variant-caps:normal;font-variant-numeric:normal;font-feature-settings:normal;text-align:start;writing-mode:lr-tb;text-anchor:start;stroke-width:0.26458332"
         id="path4562"
         inkscape:connector-curvature="0" />
      <path
         d="m 109.41386,177.61465 q -0.44924,0 -0.67524,-0.23703 -0.226,-0.23702 -0.226,-0.65043 0,-0.46302 0.30317,-0.71107 0.30593,-0.24805 0.98392,-0.26458 l 0.66973,-0.011 v -0.1626 q 0,-0.36381 -0.15434,-0.5209 -0.15434,-0.1571 -0.48507,-0.1571 -0.33349,0 -0.48507,0.113 -0.15158,0.113 -0.1819,0.36105 l -0.51814,-0.0469 q 0.12678,-0.80477 1.19613,-0.80477 0.56224,0 0.84612,0.25907 0.28388,0.25631 0.28388,0.74414 v 1.28433 q 0,0.22049 0.0579,0.33349 0.0579,0.11024 0.22049,0.11024 0.0717,0 0.16261,-0.0193 v 0.30868 q -0.18742,0.0441 -0.3831,0.0441 -0.27561,0 -0.40238,-0.14332 -0.12403,-0.14607 -0.14056,-0.45475 h -0.0165 q -0.19017,0.34175 -0.44373,0.48507 -0.2508,0.14056 -0.61185,0.14056 z m 0.113,-0.37207 q 0.27285,0 0.48507,-0.12403 0.21222,-0.12402 0.33349,-0.339 0.12402,-0.21773 0.12402,-0.44648 v -0.24529 l -0.54295,0.011 q -0.35002,0.006 -0.53192,0.0717 -0.17915,0.0662 -0.27561,0.20395 -0.0965,0.13781 -0.0965,0.36105 0,0.24253 0.12953,0.37482 0.1323,0.1323 0.37483,0.1323 z"
         style="font-style:normal;font-variant:normal;font-weight:normal;font-stretch:normal;font-size:5.64444447px;font-family:'DEC Terminal';-inkscape-font-specification:'DEC Terminal, Normal';font-variant-ligatures:normal;font-variant-caps:normal;font-variant-numeric:normal;font-feature-settings:normal;text-align:start;writing-mode:lr-tb;text-anchor:start;stroke-width:0.26458332"
         id="path4564"
         inkscape:connector-curvature="0" />
      <path
         d="m 114.03305,176.73546 q 0,0.42168 -0.31971,0.65043 -0.31695,0.22876 -0.89021,0.22876 -0.55673,0 -0.8599,-0.1819 -0.30041,-0.18466 -0.39136,-0.57327 l 0.43822,-0.0854 q 0.0634,0.23978 0.26182,0.35278 0.19844,0.11024 0.55122,0.11024 0.37758,0 0.55121,-0.11575 0.17639,-0.11576 0.17639,-0.34727 0,-0.17639 -0.12127,-0.28663 -0.12126,-0.11024 -0.39136,-0.1819 l -0.35553,-0.0937 q -0.42719,-0.11024 -0.60909,-0.21497 -0.17915,-0.10749 -0.28112,-0.25907 -0.10198,-0.15159 -0.10198,-0.37207 0,-0.4079 0.28939,-0.62012 0.29214,-0.21497 0.84887,-0.21497 0.49334,0 0.78273,0.17363 0.29214,0.17363 0.36931,0.55673 l -0.44648,0.0551 q -0.0413,-0.19844 -0.22325,-0.30317 -0.17914,-0.10749 -0.48231,-0.10749 -0.33624,0 -0.49609,0.10198 -0.15986,0.10197 -0.15986,0.30868 0,0.12678 0.0661,0.20946 0.0662,0.0827 0.19568,0.14056 0.12954,0.0579 0.5457,0.15985 0.39412,0.0992 0.56776,0.18466 0.17363,0.0827 0.27285,0.18466 0.10197,0.10197 0.15709,0.23702 0.0551,0.13229 0.0551,0.30317 z"
         style="font-style:normal;font-variant:normal;font-weight:normal;font-stretch:normal;font-size:5.64444447px;font-family:'DEC Terminal';-inkscape-font-specification:'DEC Terminal, Normal';font-variant-ligatures:normal;font-variant-caps:normal;font-variant-numeric:normal;font-feature-settings:normal;text-align:start;writing-mode:lr-tb;text-anchor:start;stroke-width:0.26458332"
         id="path4566"
         inkscape:connector-curvature="0" />
      <path
         d="m 115.76386,177.53748 q -0.24529,0.0661 -0.5016,0.0661 -0.59532,0 -0.59532,-0.67524 v -1.98988 h -0.34451 v -0.36105 h 0.36381 l 0.14607,-0.66697 h 0.33073 v 0.66697 h 0.55121 v 0.36105 h -0.55121 v 1.8824 q 0,0.21497 0.0689,0.30316 0.0717,0.0854 0.24529,0.0854 0.0992,0 0.28663,-0.0386 z"
         style="font-style:normal;font-variant:normal;font-weight:normal;font-stretch:normal;font-size:5.64444447px;font-family:'DEC Terminal';-inkscape-font-specification:'DEC Terminal, Normal';font-variant-ligatures:normal;font-variant-caps:normal;font-variant-numeric:normal;font-feature-settings:normal;text-align:start;writing-mode:lr-tb;text-anchor:start;stroke-width:0.26458332"
         id="path4568"
         inkscape:connector-curvature="0" />
      <path
         d="m 116.56312,176.17322 q 0,0.51263 0.21222,0.79099 0.21222,0.27837 0.62012,0.27837 0.32246,0 0.51538,-0.12954 0.19569,-0.12954 0.26459,-0.32797 l 0.43546,0.12402 q -0.26734,0.70556 -1.21543,0.70556 -0.66146,0 -1.00873,-0.39412 -0.3445,-0.39412 -0.3445,-1.17134 0,-0.73862 0.3445,-1.13274 0.34727,-0.39412 0.98944,-0.39412 1.31464,0 1.31464,1.58474 v 0.0661 z m 1.61506,-0.38034 q -0.0413,-0.47129 -0.23977,-0.68626 -0.19844,-0.21773 -0.57051,-0.21773 -0.36105,0 -0.57327,0.24253 -0.20946,0.23978 -0.22599,0.66146 z"
         style="font-style:normal;font-variant:normal;font-weight:normal;font-stretch:normal;font-size:5.64444447px;font-family:'DEC Terminal';-inkscape-font-specification:'DEC Terminal, Normal';font-variant-ligatures:normal;font-variant-caps:normal;font-variant-numeric:normal;font-feature-settings:normal;text-align:start;writing-mode:lr-tb;text-anchor:start;stroke-width:0.26458332"
         id="path4570"
         inkscape:connector-curvature="0" />
      <path
         d="m 119.33574,177.55952 v -2.28754 q 0,-0.31419 -0.0165,-0.69453 h 0.46853 q 0.0221,0.50712 0.0221,0.60909 h 0.011 q 0.11851,-0.38309 0.27285,-0.52365 0.15434,-0.14056 0.43546,-0.14056 0.0992,0 0.20119,0.0276 v 0.45475 q -0.0992,-0.0276 -0.26458,-0.0276 -0.30868,0 -0.47129,0.26734 -0.16261,0.26458 -0.16261,0.76068 v 1.55442 z"
         style="font-style:normal;font-variant:normal;font-weight:normal;font-stretch:normal;font-size:5.64444447px;font-family:'DEC Terminal';-inkscape-font-specification:'DEC Terminal, Normal';font-variant-ligatures:normal;font-variant-caps:normal;font-variant-numeric:normal;font-feature-settings:normal;text-align:start;writing-mode:lr-tb;text-anchor:start;stroke-width:0.26458332"
         id="path4572"
         inkscape:connector-curvature="0" />
    </g>
    <g
       aria-label="Filter"
       style="font-style:normal;font-variant:normal;font-weight:normal;font-stretch:normal;font-size:5.64444447px;line-height:1.25;font-family:'DEC Terminal';-inkscape-font-specification:'DEC Terminal, Normal';font-variant-ligatures:normal;font-variant-caps:normal;font-variant-numeric:normal;font-feature-settings:normal;text-align:start;letter-spacing:0px;word-spacing:0px;writing-mode:lr-tb;text-anchor:start;fill:#000000;fill-opacity:1;stroke:none;stroke-width:0.26458332"
       id="text4491">
      <path
         d="m 157.47158,174.86211 v 1.44419 h 2.16627 v 0.43546 h -2.16627 v 1.57372 h -0.52641 v -3.88332 h 2.75883 v 0.42995 z"
         style="font-style:normal;font-variant:normal;font-weight:normal;font-stretch:normal;font-size:5.64444447px;font-family:'DEC Terminal';-inkscape-font-specification:'DEC Terminal, Normal';font-variant-ligatures:normal;font-variant-caps:normal;font-variant-numeric:normal;font-feature-settings:normal;text-align:start;writing-mode:lr-tb;text-anchor:start;stroke-width:0.26458332"
         id="path4549"
         inkscape:connector-curvature="0" />
      <path
         d="m 160.31034,174.6995 v -0.47404 h 0.49609 v 0.47404 z m 0,3.61598 v -2.98208 h 0.49609 v 2.98208 z"
         style="font-style:normal;font-variant:normal;font-weight:normal;font-stretch:normal;font-size:5.64444447px;font-family:'DEC Terminal';-inkscape-font-specification:'DEC Terminal, Normal';font-variant-ligatures:normal;font-variant-caps:normal;font-variant-numeric:normal;font-feature-settings:normal;text-align:start;writing-mode:lr-tb;text-anchor:start;stroke-width:0.26458332"
         id="path4551"
         inkscape:connector-curvature="0" />
      <path
         d="m 161.56986,178.31548 v -4.09002 h 0.4961 v 4.09002 z"
         style="font-style:normal;font-variant:normal;font-weight:normal;font-stretch:normal;font-size:5.64444447px;font-family:'DEC Terminal';-inkscape-font-specification:'DEC Terminal, Normal';font-variant-ligatures:normal;font-variant-caps:normal;font-variant-numeric:normal;font-feature-settings:normal;text-align:start;writing-mode:lr-tb;text-anchor:start;stroke-width:0.26458332"
         id="path4553"
         inkscape:connector-curvature="0" />
      <path
         d="m 163.97316,178.29343 q -0.24529,0.0661 -0.5016,0.0661 -0.59532,0 -0.59532,-0.67524 v -1.98988 h -0.3445 v -0.36105 h 0.3638 l 0.14607,-0.66697 h 0.33073 v 0.66697 h 0.55121 v 0.36105 h -0.55121 v 1.8824 q 0,0.21497 0.0689,0.30317 0.0717,0.0854 0.24529,0.0854 0.0992,0 0.28663,-0.0386 z"
         style="font-style:normal;font-variant:normal;font-weight:normal;font-stretch:normal;font-size:5.64444447px;font-family:'DEC Terminal';-inkscape-font-specification:'DEC Terminal, Normal';font-variant-ligatures:normal;font-variant-caps:normal;font-variant-numeric:normal;font-feature-settings:normal;text-align:start;writing-mode:lr-tb;text-anchor:start;stroke-width:0.26458332"
         id="path4555"
         inkscape:connector-curvature="0" />
      <path
         d="m 164.77242,176.92917 q 0,0.51263 0.21222,0.79099 0.21222,0.27837 0.62012,0.27837 0.32246,0 0.51539,-0.12954 0.19568,-0.12953 0.26458,-0.32797 l 0.43546,0.12402 q -0.26734,0.70556 -1.21543,0.70556 -0.66146,0 -1.00872,-0.39412 -0.34451,-0.39412 -0.34451,-1.17133 0,-0.73863 0.34451,-1.13275 0.34726,-0.39412 0.98943,-0.39412 1.31465,0 1.31465,1.58474 v 0.0661 z m 1.61507,-0.38034 q -0.0414,-0.47129 -0.23978,-0.68626 -0.19844,-0.21773 -0.57051,-0.21773 -0.36105,0 -0.57326,0.24253 -0.20947,0.23978 -0.226,0.66146 z"
         style="font-style:normal;font-variant:normal;font-weight:normal;font-stretch:normal;font-size:5.64444447px;font-family:'DEC Terminal';-inkscape-font-specification:'DEC Terminal, Normal';font-variant-ligatures:normal;font-variant-caps:normal;font-variant-numeric:normal;font-feature-settings:normal;text-align:start;writing-mode:lr-tb;text-anchor:start;stroke-width:0.26458332"
         id="path4557"
         inkscape:connector-curvature="0" />
      <path
         d="m 167.54504,178.31548 v -2.28755 q 0,-0.31419 -0.0165,-0.69453 h 0.46853 q 0.0221,0.50712 0.0221,0.60909 h 0.011 q 0.11851,-0.38309 0.27285,-0.52365 0.15434,-0.14056 0.43546,-0.14056 0.0992,0 0.20119,0.0276 v 0.45475 q -0.0992,-0.0276 -0.26458,-0.0276 -0.30868,0 -0.47129,0.26734 -0.16261,0.26458 -0.16261,0.76068 v 1.55443 z"
         style="font-style:normal;font-variant:normal;font-weight:normal;font-stretch:normal;font-size:5.64444447px;font-family:'DEC Terminal';-inkscape-font-specification:'DEC Terminal, Normal';font-variant-ligatures:normal;font-variant-caps:normal;font-variant-numeric:normal;font-feature-settings:normal;text-align:start;writing-mode:lr-tb;text-anchor:start;stroke-width:0.26458332"
         id="path4559"
         inkscape:connector-curvature="0" />
    </g>
    <g
       aria-label="Cutoff"
       style="font-style:normal;font-variant:normal;font-weight:normal;font-stretch:normal;font-size:5.64444447px;line-height:1.25;font-family:'DEC Terminal';-inkscape-font-specification:'DEC Terminal, Normal';font-variant-ligatures:normal;font-variant-caps:normal;font-variant-numeric:normal;font-feature-settings:normal;text-align:start;letter-spacing:0px;word-spacing:0px;writing-mode:lr-tb;text-anchor:start;fill:#000000;fill-opacity:1;stroke:none;stroke-width:0.26458332"
       id="text4495">
      <path
         d="m 165.84651,185.0096 q -0.64492,0 -1.00321,0.41617 -0.35829,0.41341 -0.35829,1.1355 0,0.71383 0.37207,1.14929 0.37482,0.4327 1.01148,0.4327 0.8158,0 1.22645,-0.80753 l 0.42995,0.21497 q -0.23978,0.50161 -0.67524,0.76344 -0.4327,0.26183 -1.00597,0.26183 -0.58704,0 -1.01699,-0.24254 -0.42719,-0.24529 -0.65319,-0.69729 -0.22324,-0.45475 -0.22324,-1.07487 0,-0.92879 0.5016,-1.45521 0.50161,-0.52641 1.38907,-0.52641 0.62011,0 1.03628,0.24254 0.41617,0.24253 0.61185,0.71933 l -0.49885,0.16537 q -0.13505,-0.339 -0.43546,-0.51814 -0.29766,-0.17915 -0.70831,-0.17915 z"
         style="font-style:normal;font-variant:normal;font-weight:normal;font-stretch:normal;font-size:5.64444447px;font-family:'DEC Terminal';-inkscape-font-specification:'DEC Terminal, Normal';font-variant-ligatures:normal;font-variant-caps:normal;font-variant-numeric:normal;font-feature-settings:normal;text-align:start;writing-mode:lr-tb;text-anchor:start;stroke-width:0.26458332"
         id="path4536"
         inkscape:connector-curvature="0" />
      <path
         d="m 168.6081,185.53877 v 1.89067 q 0,0.2949 0.0579,0.45751 0.0579,0.1626 0.18466,0.23426 0.12678,0.0717 0.37207,0.0717 0.35829,0 0.565,-0.24529 0.2067,-0.24529 0.2067,-0.68075 v -1.72806 h 0.4961 v 2.34542 q 0,0.5209 0.0165,0.63665 h -0.46853 q -0.003,-0.0138 -0.006,-0.0744 -0.003,-0.0606 -0.008,-0.1378 -0.003,-0.0799 -0.008,-0.29766 h -0.008 q -0.17087,0.30868 -0.39687,0.43822 -0.22324,0.12678 -0.55673,0.12678 -0.49058,0 -0.71933,-0.24254 -0.226,-0.24529 -0.226,-0.80753 v -1.98713 z"
         style="font-style:normal;font-variant:normal;font-weight:normal;font-stretch:normal;font-size:5.64444447px;font-family:'DEC Terminal';-inkscape-font-specification:'DEC Terminal, Normal';font-variant-ligatures:normal;font-variant-caps:normal;font-variant-numeric:normal;font-feature-settings:normal;text-align:start;writing-mode:lr-tb;text-anchor:start;stroke-width:0.26458332"
         id="path4538"
         inkscape:connector-curvature="0" />
      <path
         d="m 172.41148,188.49879 q -0.24529,0.0661 -0.5016,0.0661 -0.59532,0 -0.59532,-0.67524 v -1.98989 h -0.34451 v -0.36104 h 0.36381 l 0.14607,-0.66697 h 0.33073 v 0.66697 h 0.55121 v 0.36104 h -0.55121 v 1.88241 q 0,0.21497 0.0689,0.30316 0.0717,0.0854 0.24529,0.0854 0.0992,0 0.28663,-0.0386 z"
         style="font-style:normal;font-variant:normal;font-weight:normal;font-stretch:normal;font-size:5.64444447px;font-family:'DEC Terminal';-inkscape-font-specification:'DEC Terminal, Normal';font-variant-ligatures:normal;font-variant-caps:normal;font-variant-numeric:normal;font-feature-settings:normal;text-align:start;writing-mode:lr-tb;text-anchor:start;stroke-width:0.26458332"
         id="path4540"
         inkscape:connector-curvature="0" />
      <path
         d="m 175.35222,187.02705 q 0,0.78273 -0.34451,1.16582 -0.34451,0.3831 -1.00046,0.3831 -0.65319,0 -0.98667,-0.39688 -0.33349,-0.39963 -0.33349,-1.15204 0,-1.5434 1.3367,-1.5434 0.6835,0 1.00597,0.37758 0.32246,0.37483 0.32246,1.16582 z m -0.5209,0 q 0,-0.61736 -0.18466,-0.89572 -0.1819,-0.28112 -0.6146,-0.28112 -0.43546,0 -0.63115,0.28663 -0.19292,0.28387 -0.19292,0.89021 0,0.5898 0.19017,0.88746 0.19292,0.2949 0.60358,0.2949 0.44648,0 0.63665,-0.28664 0.19293,-0.28663 0.19293,-0.89572 z"
         style="font-style:normal;font-variant:normal;font-weight:normal;font-stretch:normal;font-size:5.64444447px;font-family:'DEC Terminal';-inkscape-font-specification:'DEC Terminal, Normal';font-variant-ligatures:normal;font-variant-caps:normal;font-variant-numeric:normal;font-feature-settings:normal;text-align:start;writing-mode:lr-tb;text-anchor:start;stroke-width:0.26458332"
         id="path4542"
         inkscape:connector-curvature="0" />
      <path
         d="m 176.58694,185.89981 v 2.62103 h -0.4961 v -2.62103 h -0.41892 v -0.36104 h 0.41892 v -0.33624 q 0,-0.4079 0.17915,-0.58705 0.17914,-0.17914 0.54846,-0.17914 0.2067,0 0.35002,0.0331 v 0.37758 q -0.12402,-0.022 -0.22049,-0.022 -0.19017,0 -0.2756,0.0965 -0.0854,0.0965 -0.0854,0.35002 v 0.26734 h 0.58153 v 0.36104 z"
         style="font-style:normal;font-variant:normal;font-weight:normal;font-stretch:normal;font-size:5.64444447px;font-family:'DEC Terminal';-inkscape-font-specification:'DEC Terminal, Normal';font-variant-ligatures:normal;font-variant-caps:normal;font-variant-numeric:normal;font-feature-settings:normal;text-align:start;writing-mode:lr-tb;text-anchor:start;stroke-width:0.26458332"
         id="path4544"
         inkscape:connector-curvature="0" />
      <path
         d="m 178.05317,185.89981 v 2.62103 h -0.49609 v -2.62103 h -0.41893 v -0.36104 h 0.41893 v -0.33624 q 0,-0.4079 0.17914,-0.58705 0.17915,-0.17914 0.54846,-0.17914 0.20671,0 0.35002,0.0331 v 0.37758 q -0.12402,-0.022 -0.22048,-0.022 -0.19017,0 -0.27561,0.0965 -0.0854,0.0965 -0.0854,0.35002 v 0.26734 h 0.58153 v 0.36104 z"
         style="font-style:normal;font-variant:normal;font-weight:normal;font-stretch:normal;font-size:5.64444447px;font-family:'DEC Terminal';-inkscape-font-specification:'DEC Terminal, Normal';font-variant-ligatures:normal;font-variant-caps:normal;font-variant-numeric:normal;font-feature-settings:normal;text-align:start;writing-mode:lr-tb;text-anchor:start;stroke-width:0.26458332"
         id="path4546"
         inkscape:connector-curvature="0" />
    </g>
    <g
       aria-label="Reso"
       style="font-style:normal;font-variant:normal;font-weight:normal;font-stretch:normal;font-size:5.64444447px;line-height:1.25;font-family:'DEC Terminal';-inkscape-font-specification:'DEC Terminal, Normal';font-variant-ligatures:normal;font-variant-caps:normal;font-variant-numeric:normal;font-feature-settings:normal;text-align:start;letter-spacing:0px;word-spacing:0px;writing-mode:lr-tb;text-anchor:start;fill:#000000;fill-opacity:1;stroke:none;stroke-width:0.26458332"
       id="text4499">
      <path
         d="m 169.13961,200.61607 -1.00873,-1.6123 h -1.20991 v 1.6123 h -0.52642 v -3.88331 h 1.82728 q 0.65595,0 1.01148,0.2949 0.35829,0.29215 0.35829,0.8158 0,0.4327 -0.25356,0.7276 -0.2508,0.29491 -0.69453,0.37208 l 1.10243,1.67293 z m -0.0772,-2.7671 q 0,-0.33899 -0.23151,-0.51538 -0.22876,-0.17915 -0.66146,-0.17915 h -1.2485 v 1.43316 h 1.27055 q 0.41616,0 0.64216,-0.19292 0.22876,-0.19569 0.22876,-0.54571 z"
         style="font-style:normal;font-variant:normal;font-weight:normal;font-stretch:normal;font-size:5.64444447px;font-family:'DEC Terminal';-inkscape-font-specification:'DEC Terminal, Normal';font-variant-ligatures:normal;font-variant-caps:normal;font-variant-numeric:normal;font-feature-settings:normal;text-align:start;writing-mode:lr-tb;text-anchor:start;stroke-width:0.26458332"
         id="path4527"
         inkscape:connector-curvature="0" />
      <path
         d="m 170.7712,199.22977 q 0,0.51263 0.21222,0.79099 0.21222,0.27836 0.62012,0.27836 0.32246,0 0.51539,-0.12953 0.19568,-0.12954 0.26458,-0.32797 l 0.43546,0.12402 q -0.26734,0.70556 -1.21543,0.70556 -0.66146,0 -1.00873,-0.39412 -0.3445,-0.39412 -0.3445,-1.17134 0,-0.73862 0.3445,-1.13274 0.34727,-0.39412 0.98944,-0.39412 1.31464,0 1.31464,1.58474 v 0.0661 z m 1.61506,-0.38034 q -0.0413,-0.47129 -0.23977,-0.68626 -0.19844,-0.21773 -0.57051,-0.21773 -0.36105,0 -0.57327,0.24253 -0.20946,0.23978 -0.22599,0.66146 z"
         style="font-style:normal;font-variant:normal;font-weight:normal;font-stretch:normal;font-size:5.64444447px;font-family:'DEC Terminal';-inkscape-font-specification:'DEC Terminal, Normal';font-variant-ligatures:normal;font-variant-caps:normal;font-variant-numeric:normal;font-feature-settings:normal;text-align:start;writing-mode:lr-tb;text-anchor:start;stroke-width:0.26458332"
         id="path4529"
         inkscape:connector-curvature="0" />
      <path
         d="m 175.77073,199.79201 q 0,0.42168 -0.31971,0.65043 -0.31695,0.22876 -0.89021,0.22876 -0.55673,0 -0.8599,-0.18191 -0.30041,-0.18465 -0.39136,-0.57326 l 0.43822,-0.0854 q 0.0634,0.23978 0.26182,0.35278 0.19844,0.11024 0.55122,0.11024 0.37758,0 0.55121,-0.11575 0.17639,-0.11576 0.17639,-0.34727 0,-0.17639 -0.12126,-0.28663 -0.12127,-0.11024 -0.39137,-0.1819 l -0.35553,-0.0937 q -0.42719,-0.11024 -0.60909,-0.21497 -0.17915,-0.10749 -0.28112,-0.25907 -0.10198,-0.15159 -0.10198,-0.37207 0,-0.4079 0.28939,-0.62012 0.29214,-0.21497 0.84887,-0.21497 0.49334,0 0.78273,0.17363 0.29214,0.17363 0.36931,0.55673 l -0.44648,0.0551 q -0.0413,-0.19844 -0.22325,-0.30317 -0.17914,-0.10749 -0.48231,-0.10749 -0.33624,0 -0.49609,0.10198 -0.15986,0.10197 -0.15986,0.30868 0,0.12678 0.0661,0.20946 0.0661,0.0827 0.19568,0.14056 0.12954,0.0579 0.5457,0.15985 0.39412,0.0992 0.56776,0.18466 0.17363,0.0827 0.27285,0.18466 0.10197,0.10197 0.15709,0.23702 0.0551,0.13229 0.0551,0.30317 z"
         style="font-style:normal;font-variant:normal;font-weight:normal;font-stretch:normal;font-size:5.64444447px;font-family:'DEC Terminal';-inkscape-font-specification:'DEC Terminal, Normal';font-variant-ligatures:normal;font-variant-caps:normal;font-variant-numeric:normal;font-feature-settings:normal;text-align:start;writing-mode:lr-tb;text-anchor:start;stroke-width:0.26458332"
         id="path4531"
         inkscape:connector-curvature="0" />
      <path
         d="m 178.87682,199.12228 q 0,0.78273 -0.3445,1.16582 -0.34451,0.3831 -1.00046,0.3831 -0.65319,0 -0.98668,-0.39688 -0.33348,-0.39963 -0.33348,-1.15204 0,-1.5434 1.3367,-1.5434 0.6835,0 1.00596,0.37758 0.32246,0.37483 0.32246,1.16582 z m -0.52089,0 q 0,-0.61736 -0.18466,-0.89572 -0.1819,-0.28112 -0.61461,-0.28112 -0.43546,0 -0.63114,0.28663 -0.19292,0.28387 -0.19292,0.89021 0,0.5898 0.19017,0.88746 0.19292,0.2949 0.60358,0.2949 0.44648,0 0.63665,-0.28663 0.19293,-0.28664 0.19293,-0.89573 z"
         style="font-style:normal;font-variant:normal;font-weight:normal;font-stretch:normal;font-size:5.64444447px;font-family:'DEC Terminal';-inkscape-font-specification:'DEC Terminal, Normal';font-variant-ligatures:normal;font-variant-caps:normal;font-variant-numeric:normal;font-feature-settings:normal;text-align:start;writing-mode:lr-tb;text-anchor:start;stroke-width:0.26458332"
         id="path4533"
         inkscape:connector-curvature="0" />
    </g>
    <g
       aria-label="Type"
       style="font-style:normal;font-variant:normal;font-weight:normal;font-stretch:normal;font-size:5.64444447px;line-height:1.25;font-family:'DEC Terminal';-inkscape-font-specification:'DEC Terminal, Normal';font-variant-ligatures:normal;font-variant-caps:normal;font-variant-numeric:normal;font-feature-settings:normal;text-align:start;letter-spacing:0px;word-spacing:0px;writing-mode:lr-tb;text-anchor:start;fill:#000000;fill-opacity:1;stroke:none;stroke-width:0.26458332"
       id="text4503">
      <path
         d="m 167.15997,212.65973 v 3.45337 h -0.52365 v -3.45337 h -1.33394 v -0.42994 h 3.19153 v 0.42994 z"
         style="font-style:normal;font-variant:normal;font-weight:normal;font-stretch:normal;font-size:5.64444447px;font-family:'DEC Terminal';-inkscape-font-specification:'DEC Terminal, Normal';font-variant-ligatures:normal;font-variant-caps:normal;font-variant-numeric:normal;font-feature-settings:normal;text-align:start;writing-mode:lr-tb;text-anchor:start;stroke-width:0.26458332"
         id="path4518"
         inkscape:connector-curvature="0" />
      <path
         d="m 168.84394,217.28443 q -0.20395,0 -0.34176,-0.0303 v -0.37207 q 0.10473,0.0165 0.23151,0.0165 0.46302,0 0.73312,-0.68075 l 0.0468,-0.11851 -1.18235,-2.9683 h 0.52916 l 0.62839,1.64814 q 0.0138,0.0386 0.0331,0.0937 0.0193,0.0524 0.12402,0.35829 0.10473,0.30593 0.113,0.34176 l 0.19293,-0.54295 0.65319,-1.89894 h 0.52365 l -1.14652,2.98208 q -0.18466,0.4768 -0.34451,0.70831 -0.15986,0.23427 -0.35554,0.34727 -0.19292,0.11575 -0.43821,0.11575 z"
         style="font-style:normal;font-variant:normal;font-weight:normal;font-stretch:normal;font-size:5.64444447px;font-family:'DEC Terminal';-inkscape-font-specification:'DEC Terminal, Normal';font-variant-ligatures:normal;font-variant-caps:normal;font-variant-numeric:normal;font-feature-settings:normal;text-align:start;writing-mode:lr-tb;text-anchor:start;stroke-width:0.26458332"
         id="path4520"
         inkscape:connector-curvature="0" />
      <path
         d="m 174.0419,214.60828 q 0,1.55994 -1.09692,1.55994 -0.68902,0 -0.92604,-0.51814 h -0.0138 q 0.011,0.0221 0.011,0.46853 v 1.16582 h -0.49609 v -3.54431 q 0,-0.46027 -0.0165,-0.6091 h 0.47956 q 0.003,0.011 0.008,0.0799 0.006,0.0661 0.011,0.20671 0.008,0.14056 0.008,0.19292 h 0.011 q 0.13229,-0.27561 0.35002,-0.40239 0.21773,-0.12953 0.57327,-0.12953 0.55121,0 0.82406,0.36931 0.27286,0.36932 0.27286,1.16031 z m -0.5209,0.011 q 0,-0.62287 -0.16812,-0.89021 -0.16812,-0.26734 -0.53468,-0.26734 -0.2949,0 -0.46302,0.12403 -0.16537,0.12402 -0.25356,0.3886 -0.0854,0.26183 -0.0854,0.68351 0,0.58704 0.18741,0.86541 0.18742,0.27836 0.6091,0.27836 0.36931,0 0.53743,-0.27009 0.17088,-0.27286 0.17088,-0.91227 z"
         style="font-style:normal;font-variant:normal;font-weight:normal;font-stretch:normal;font-size:5.64444447px;font-family:'DEC Terminal';-inkscape-font-specification:'DEC Terminal, Normal';font-variant-ligatures:normal;font-variant-caps:normal;font-variant-numeric:normal;font-feature-settings:normal;text-align:start;writing-mode:lr-tb;text-anchor:start;stroke-width:0.26458332"
         id="path4522"
         inkscape:connector-curvature="0" />
      <path
         d="m 175.04235,214.72679 q 0,0.51263 0.21222,0.791 0.21222,0.27836 0.62012,0.27836 0.32246,0 0.51538,-0.12954 0.19568,-0.12953 0.26459,-0.32797 l 0.43546,0.12402 q -0.26734,0.70556 -1.21543,0.70556 -0.66146,0 -1.00873,-0.39412 -0.34451,-0.39412 -0.34451,-1.17133 0,-0.73863 0.34451,-1.13275 0.34727,-0.39412 0.98943,-0.39412 1.31465,0 1.31465,1.58475 v 0.0661 z m 1.61506,-0.38034 q -0.0413,-0.47129 -0.23978,-0.68626 -0.19843,-0.21773 -0.5705,-0.21773 -0.36105,0 -0.57327,0.24253 -0.20946,0.23978 -0.226,0.66146 z"
         style="font-style:normal;font-variant:normal;font-weight:normal;font-stretch:normal;font-size:5.64444447px;font-family:'DEC Terminal';-inkscape-font-specification:'DEC Terminal, Normal';font-variant-ligatures:normal;font-variant-caps:normal;font-variant-numeric:normal;font-feature-settings:normal;text-align:start;writing-mode:lr-tb;text-anchor:start;stroke-width:0.26458332"
         id="path4524"
         inkscape:connector-curvature="0" />
    </g>
    <g
       aria-label="Ext?"
       style="font-style:normal;font-variant:normal;font-weight:normal;font-stretch:normal;font-size:5.64444447px;line-height:1.25;font-family:'DEC Terminal';-inkscape-font-specification:'DEC Terminal, Normal';font-variant-ligatures:normal;font-variant-caps:normal;font-variant-numeric:normal;font-feature-settings:normal;text-align:start;letter-spacing:0px;word-spacing:0px;writing-mode:lr-tb;text-anchor:start;fill:#000000;fill-opacity:1;stroke:none;stroke-width:0.26458332"
       id="text4507">
      <path
         d="m 166.77256,231.98808 v -3.88331 h 2.94625 v 0.42995 h -2.41984 v 1.24575 h 2.25447 v 0.42443 h -2.25447 v 1.35323 h 2.53284 v 0.42995 z"
         style="font-style:normal;font-variant:normal;font-weight:normal;font-stretch:normal;font-size:5.64444447px;font-family:'DEC Terminal';-inkscape-font-specification:'DEC Terminal, Normal';font-variant-ligatures:normal;font-variant-caps:normal;font-variant-numeric:normal;font-feature-settings:normal;text-align:start;writing-mode:lr-tb;text-anchor:start;stroke-width:0.26458332"
         id="path4509"
         inkscape:connector-curvature="0" />
      <path
         d="m 172.28747,231.98808 -0.80202,-1.2237 -0.80753,1.2237 h -0.53468 l 1.06109,-1.53238 -1.01148,-1.44969 h 0.54846 l 0.74414,1.16031 0.73863,-1.16031 h 0.55397 l -1.01148,1.44418 1.07487,1.53789 z"
         style="font-style:normal;font-variant:normal;font-weight:normal;font-stretch:normal;font-size:5.64444447px;font-family:'DEC Terminal';-inkscape-font-specification:'DEC Terminal, Normal';font-variant-ligatures:normal;font-variant-caps:normal;font-variant-numeric:normal;font-feature-settings:normal;text-align:start;writing-mode:lr-tb;text-anchor:start;stroke-width:0.26458332"
         id="path4511"
         inkscape:connector-curvature="0" />
      <path
         d="m 174.42894,231.96603 q -0.24529,0.0662 -0.5016,0.0662 -0.59532,0 -0.59532,-0.67524 v -1.98989 h -0.34451 v -0.36104 h 0.36381 l 0.14607,-0.66697 h 0.33073 v 0.66697 h 0.55121 v 0.36104 h -0.55121 v 1.8824 q 0,0.21498 0.0689,0.30317 0.0717,0.0854 0.24529,0.0854 0.0992,0 0.28663,-0.0386 z"
         style="font-style:normal;font-variant:normal;font-weight:normal;font-stretch:normal;font-size:5.64444447px;font-family:'DEC Terminal';-inkscape-font-specification:'DEC Terminal, Normal';font-variant-ligatures:normal;font-variant-caps:normal;font-variant-numeric:normal;font-feature-settings:normal;text-align:start;writing-mode:lr-tb;text-anchor:start;stroke-width:0.26458332"
         id="path4513"
         inkscape:connector-curvature="0" />
      <path
         d="m 177.39723,229.14381 q 0,0.20671 -0.0606,0.36932 -0.0606,0.1626 -0.17363,0.30041 -0.113,0.1378 -0.36932,0.32522 l -0.22048,0.1626 q -0.19844,0.14332 -0.2949,0.30317 -0.0965,0.1571 -0.0992,0.34451 h -0.48231 q 0.006,-0.19017 0.0579,-0.33348 0.0551,-0.14332 0.14056,-0.25356 0.0854,-0.11025 0.19293,-0.19568 0.10749,-0.0882 0.21773,-0.16537 0.11024,-0.0799 0.21497,-0.15709 0.10749,-0.0799 0.19017,-0.17639 0.0827,-0.0965 0.13229,-0.21773 0.0524,-0.12127 0.0524,-0.28388 0,-0.31419 -0.21498,-0.49609 -0.21221,-0.1819 -0.59806,-0.1819 -0.38585,0 -0.61185,0.19292 -0.226,0.19293 -0.26459,0.52917 l -0.50711,-0.0331 q 0.0717,-0.5457 0.42994,-0.83784 0.35829,-0.29215 0.94809,-0.29215 0.61461,0 0.96739,0.29215 0.35277,0.28939 0.35277,0.80477 z m -1.72254,2.84427 v -0.55397 h 0.53743 v 0.55397 z"
         style="font-style:normal;font-variant:normal;font-weight:normal;font-stretch:normal;font-size:5.64444447px;font-family:'DEC Terminal';-inkscape-font-specification:'DEC Terminal, Normal';font-variant-ligatures:normal;font-variant-caps:normal;font-variant-numeric:normal;font-feature-settings:normal;text-align:start;writing-mode:lr-tb;text-anchor:start;stroke-width:0.26458332"
         id="path4515"
         inkscape:connector-curvature="0" />
    </g>
    <g
       aria-label="Clock
(&lt;=50Hz)"
       style="font-style:normal;font-variant:normal;font-weight:normal;font-stretch:normal;font-size:5.64444447px;line-height:1.25;font-family:'DEC Terminal';-inkscape-font-specification:'DEC Terminal, Normal';font-variant-ligatures:normal;font-variant-caps:normal;font-variant-numeric:normal;font-feature-settings:normal;text-align:start;letter-spacing:0px;word-spacing:0px;writing-mode:lr-tb;text-anchor:start;fill:#000000;fill-opacity:1;stroke:none;stroke-width:0.26458332"
       id="text180">
      <path
         d="m 108.01614,202.3965 q -0.64492,0 -1.00321,0.41617 -0.35829,0.41341 -0.35829,1.13551 0,0.71382 0.37207,1.14928 0.37483,0.4327 1.01148,0.4327 0.8158,0 1.22645,-0.80753 l 0.42995,0.21498 q -0.23978,0.5016 -0.67524,0.76343 -0.4327,0.26183 -1.00597,0.26183 -0.58704,0 -1.01699,-0.24254 -0.42719,-0.24529 -0.65319,-0.69729 -0.22324,-0.45475 -0.22324,-1.07486 0,-0.9288 0.50161,-1.45521 0.5016,-0.52641 1.38906,-0.52641 0.62012,0 1.03628,0.24253 0.41617,0.24254 0.61185,0.71934 l -0.49885,0.16536 q -0.13505,-0.339 -0.43546,-0.51814 -0.29765,-0.17915 -0.70831,-0.17915 z"
         style=""
         id="path186" />
      <path
         d="m 110.29266,205.90775 v -4.09002 h 0.49609 v 4.09002 z"
         style=""
         id="path188" />
      <path
         d="m 114.07124,204.41395 q 0,0.78273 -0.34451,1.16582 -0.34451,0.3831 -1.00045,0.3831 -0.65319,0 -0.98668,-0.39688 -0.33349,-0.39963 -0.33349,-1.15204 0,-1.5434 1.3367,-1.5434 0.68351,0 1.00597,0.37758 0.32246,0.37483 0.32246,1.16582 z m -0.5209,0 q 0,-0.61736 -0.18465,-0.89572 -0.18191,-0.28112 -0.61461,-0.28112 -0.43546,0 -0.63114,0.28663 -0.19293,0.28388 -0.19293,0.89021 0,0.5898 0.19017,0.88746 0.19293,0.2949 0.60358,0.2949 0.44649,0 0.63666,-0.28663 0.19292,-0.28664 0.19292,-0.89573 z"
         style=""
         id="path190" />
      <path
         d="m 115.06894,204.40293 q 0,0.59531 0.18741,0.88194 0.18742,0.28663 0.565,0.28663 0.26458,0 0.44097,-0.14331 0.17915,-0.14332 0.22049,-0.44097 l 0.5016,0.0331 q -0.0579,0.42995 -0.36656,0.68626 -0.30868,0.25632 -0.78272,0.25632 -0.62563,0 -0.95636,-0.39412 -0.32797,-0.39688 -0.32797,-1.1548 0,-0.75241 0.33073,-1.14653 0.33073,-0.39687 0.94809,-0.39687 0.45751,0 0.75792,0.23702 0.30317,0.23702 0.38034,0.65319 l -0.50988,0.0386 q -0.0386,-0.24805 -0.19568,-0.39412 -0.1571,-0.14607 -0.44648,-0.14607 -0.39412,0 -0.57051,0.26182 -0.17639,0.26183 -0.17639,0.88195 z"
         style=""
         id="path192" />
      <path
         d="m 119.3822,205.90775 -1.00872,-1.36151 -0.36381,0.30042 v 1.06109 h -0.49609 v -4.09002 h 0.49609 v 2.55488 l 1.30914,-1.44694 h 0.58153 l -1.20992,1.28158 1.27331,1.7005 z"
         style=""
         id="path194" />
      <path
         d="m 106.18335,211.49707 q 0,-0.79651 0.24805,-1.43041 0.2508,-0.63389 0.76894,-1.19338 h 0.47956 q -0.51539,0.57327 -0.75792,1.21819 -0.23978,0.64492 -0.23978,1.41111 0,0.76343 0.23702,1.4056 0.23978,0.64217 0.76068,1.2237 h -0.47956 q -0.5209,-0.56224 -0.76894,-1.19614 -0.24805,-0.63665 -0.24805,-1.42765 z"
         style=""
         id="path196" />
      <path
         d="m 107.99685,211.38958 v -0.56499 l 2.74229,-1.15204 v 0.42443 l -2.36471,1.00873 2.36471,1.01148 v 0.42168 z"
         style=""
         id="path198" />
      <path
         d="m 111.29036,210.6041 v -0.4079 h 2.7423 v 0.4079 z m 0,1.41111 v -0.4079 h 2.7423 v 0.4079 z"
         style=""
         id="path200" />
      <path
         d="m 117.21317,211.69826 q 0,0.61461 -0.36656,0.96738 -0.3638,0.35278 -1.01148,0.35278 -0.54295,0 -0.87643,-0.23702 -0.33349,-0.23702 -0.42168,-0.68626 l 0.5016,-0.0579 q 0.1571,0.57602 0.80753,0.57602 0.39963,0 0.62563,-0.23978 0.226,-0.24253 0.226,-0.66421 0,-0.36656 -0.22875,-0.59256 -0.226,-0.226 -0.61185,-0.226 -0.2012,0 -0.37483,0.0634 -0.17363,0.0634 -0.34726,0.21498 h -0.48507 l 0.12953,-2.08911 h 2.20762 v 0.42168 h -1.75562 l -0.0744,1.23197 q 0.32247,-0.24805 0.80202,-0.24805 0.57327,0 0.91226,0.33624 0.34176,0.33624 0.34176,0.87643 z"
         style=""
         id="path202" />
      <path
         d="m 120.37163,211.02027 q 0,0.97289 -0.34451,1.48552 -0.34175,0.51263 -1.01148,0.51263 -0.66973,0 -1.00597,-0.50987 -0.33624,-0.50988 -0.33624,-1.48828 0,-1.00046 0.32522,-1.49931 0.32797,-0.49885 1.03353,-0.49885 0.68626,0 1.01148,0.50436 0.32797,0.50437 0.32797,1.4938 z m -0.50436,0 q 0,-0.84061 -0.19568,-1.21819 -0.19293,-0.37758 -0.63941,-0.37758 -0.45751,0 -0.6587,0.37207 -0.19844,0.37207 -0.19844,1.2237 0,0.82682 0.20119,1.20991 0.20395,0.3831 0.64492,0.3831 0.43822,0 0.64217,-0.39136 0.20395,-0.39137 0.20395,-1.20165 z"
         style=""
         id="path204" />
      <path
         d="m 123.68444,212.9633 v -1.79972 h -2.10014 v 1.79972 h -0.52641 v -3.88331 h 0.52641 v 1.64262 h 2.10014 v -1.64262 h 0.52641 v 3.88331 z"
         style=""
         id="path206" />
      <path
         d="m 124.90262,212.9633 v -0.37758 l 1.66743,-2.2214 h -1.57372 v -0.38309 h 2.16076 v 0.37758 l -1.67018,2.2214 h 1.72806 v 0.38309 z"
         style=""
         id="path208" />
      <path
         d="m 129.02571,211.50809 q 0,0.79651 -0.2508,1.43041 -0.24805,0.63389 -0.76619,1.19338 h -0.47956 q 0.51814,-0.57878 0.75792,-1.21819 0.23978,-0.64216 0.23978,-1.41111 0,-0.76894 -0.24253,-1.41111 -0.23978,-0.64217 -0.75517,-1.21819 h 0.47956 q 0.5209,0.56224 0.76894,1.1989 0.24805,0.63389 0.24805,1.42489 z"
         style=""
         id="path210" />
    </g>
  </g>
  <g
     inkscape:groupmode="layer"
     id="layer2"
     inkscape:label="components"
     style="display:none">
    <ellipse
       id="path3737"
       cx="12.662202"
       cy="93.537201"
       rx="3.2127976"
       ry="2.8348215"
       style="fill:#00ff00;stroke-width:0.26458332"
       inkscape:label="gate1" />
    <ellipse
       id="path3737-1"
       cx="12.851191"
       cy="105.44345"
       rx="3.2127976"
       ry="2.8348215"
       style="fill:#00ff00;stroke-width:0.26458332"
       inkscape:label="gate2" />
    <ellipse
       id="path3737-1-9"
       cx="12.851191"
       cy="117.91667"
       rx="3.2127976"
       ry="2.8348215"
       style="display:inline;fill:#00ff00;stroke-width:0.26458332"
       inkscape:label="gate3" />
    <ellipse
       id="path3737-7"
       cx="34.301338"
       cy="93.631699"
       rx="3.2127976"
       ry="2.8348215"
       style="display:inline;fill:#00ff00;stroke-width:0.26458332"
       inkscape:label="freq1" />
    <ellipse
       id="path3737-1-7"
       cx="34.49033"
       cy="105.53795"
       rx="3.2127976"
       ry="2.8348215"
       style="display:inline;fill:#00ff00;stroke-width:0.26458332"
       inkscape:label="freq2" />
    <ellipse
       id="path3737-1-9-6"
       cx="34.49033"
       cy="118.01116"
       rx="3.2127976"
       ry="2.8348215"
       style="display:inline;fill:#00ff00;stroke-width:0.26458332"
       inkscape:label="freq3" />
    <ellipse
       id="path3737-73"
       cx="56.223957"
       cy="94.765617"
       rx="3.2127976"
       ry="2.8348215"
       style="display:inline;fill:#00ff00;stroke-width:0.26458332"
       inkscape:label="wf1" />
    <ellipse
       id="path3737-1-6"
       cx="56.412945"
       cy="106.67188"
       rx="3.2127976"
       ry="2.8348215"
       style="display:inline;fill:#00ff00;stroke-width:0.26458332"
       inkscape:label="wf2" />
    <ellipse
       id="path3737-1-9-5"
       cx="56.412945"
       cy="119.1451"
       rx="3.2127976"
       ry="2.8348215"
       style="display:inline;fill:#00ff00;stroke-width:0.26458332"
       inkscape:label="wf3" />
    <ellipse
       id="path3737-6"
       cx="74.130577"
       cy="94.151405"
       rx="3.2127976"
       ry="2.8348215"
       style="display:inline;fill:#00ff00;stroke-width:0.26458332"
       inkscape:label="pw1" />
    <ellipse
       id="path3737-1-3"
       cx="74.319565"
       cy="106.05766"
       rx="3.2127976"
       ry="2.8348215"
       style="display:inline;fill:#00ff00;stroke-width:0.26458332"
       inkscape:label="pw2" />
    <ellipse
       id="path3737-1-9-9"
       cx="74.319565"
       cy="118.53088"
       rx="3.2127976"
       ry="2.8348215"
       style="display:inline;fill:#00ff00;stroke-width:0.26458332"
       inkscape:label="pw3" />
    <ellipse
       id="path3737-7-4"
       cx="95.769714"
       cy="94.245903"
       rx="3.2127976"
       ry="2.8348215"
       style="display:inline;fill:#00ff00;stroke-width:0.26458332"
       inkscape:label="ring1" />
    <ellipse
       id="path3737-1-7-8"
       cx="95.95871"
       cy="106.15215"
       rx="3.2127976"
       ry="2.8348215"
       style="display:inline;fill:#00ff00;stroke-width:0.26458332"
       inkscape:label="ring2" />
    <ellipse
       id="path3737-1-9-6-1"
       cx="95.95871"
       cy="118.62536"
       rx="3.2127976"
       ry="2.8348215"
       style="display:inline;fill:#00ff00;stroke-width:0.26458332"
       inkscape:label="ring3" />
    <ellipse
       id="path3737-73-2"
       cx="117.69234"
       cy="95.379822"
       rx="3.2127976"
       ry="2.8348215"
       style="display:inline;fill:#00ff00;stroke-width:0.26458332"
       inkscape:label="sync1" />
    <ellipse
       id="path3737-1-6-9"
       cx="117.88132"
       cy="107.28608"
       rx="3.2127976"
       ry="2.8348215"
       style="display:inline;fill:#00ff00;stroke-width:0.26458332"
       inkscape:label="sync2" />
    <ellipse
       id="path3737-1-9-5-3"
       cx="117.88132"
       cy="119.7593"
       rx="3.2127976"
       ry="2.8348215"
       style="display:inline;fill:#00ff00;stroke-width:0.26458332"
       inkscape:label="sync3" />
    <ellipse
       id="path3737-9"
       cx="135.36273"
       cy="93.77343"
       rx="3.2127976"
       ry="2.8348215"
       style="display:inline;fill:#00ff00;stroke-width:0.26458332"
       inkscape:label="a1" />
    <ellipse
       id="path3737-1-0"
       cx="135.55171"
       cy="105.67968"
       rx="3.2127976"
       ry="2.8348215"
       style="display:inline;fill:#00ff00;stroke-width:0.26458332"
       inkscape:label="a2" />
    <ellipse
       id="path3737-1-9-8"
       cx="135.55171"
       cy="118.1529"
       rx="3.2127976"
       ry="2.8348215"
       style="display:inline;fill:#00ff00;stroke-width:0.26458332"
       inkscape:label="a3" />
    <ellipse
       id="path3737-7-8"
       cx="166.45128"
       cy="94.623878"
       rx="3.2127976"
       ry="2.8348215"
       style="display:inline;fill:#00ff00;stroke-width:0.26458332"
       inkscape:label="s1" />
    <ellipse
       id="path3737-1-7-5"
       cx="166.64027"
       cy="106.53013"
       rx="3.2127976"
       ry="2.8348215"
       style="display:inline;fill:#00ff00;stroke-width:0.26458332"
       inkscape:label="s2" />
    <ellipse
       id="path3737-1-9-6-0"
       cx="166.64027"
       cy="119.00334"
       rx="3.2127976"
       ry="2.8348215"
       style="display:inline;fill:#00ff00;stroke-width:0.26458332"
       inkscape:label="s3" />
    <ellipse
       id="path3737-73-9"
       cx="151.71021"
       cy="94.623871"
       rx="3.2127976"
       ry="2.8348215"
       style="display:inline;fill:#00ff00;stroke-width:0.26458332"
       inkscape:label="d1" />
    <ellipse
       id="path3737-1-6-6"
       cx="150.76527"
       cy="106.90812"
       rx="3.2127976"
       ry="2.8348215"
       style="display:inline;fill:#00ff00;stroke-width:0.26458332"
       inkscape:label="d2" />
    <ellipse
       id="path3737-1-9-5-38"
       cx="151.8992"
       cy="119.00336"
       rx="3.2127976"
       ry="2.8348215"
       style="display:inline;fill:#00ff00;stroke-width:0.26458332"
       inkscape:label="d3" />
    <ellipse
       id="path3737-7-8-4"
       cx="195.2247"
       cy="95.521568"
       rx="3.2127976"
       ry="2.8348215"
       style="display:inline;fill:#00ff00;stroke-width:0.26458332"
       inkscape:label="filterEnable1" />
    <ellipse
       id="path3737-1-7-5-8"
       cx="195.4137"
       cy="107.42782"
       rx="3.2127976"
       ry="2.8348215"
       style="display:inline;fill:#00ff00;stroke-width:0.26458332"
       inkscape:label="filterEnable2" />
    <ellipse
       id="path3737-1-9-6-0-1"
       cx="195.4137"
       cy="119.90104"
       rx="3.2127976"
       ry="2.8348215"
       style="display:inline;fill:#00ff00;stroke-width:0.26458332"
       inkscape:label="filterEnable3" />
    <ellipse
       id="path3737-73-9-6"
       cx="180.48363"
       cy="95.521568"
       rx="3.2127976"
       ry="2.8348215"
       style="display:inline;fill:#00ff00;stroke-width:0.26458332"
       inkscape:label="r1" />
    <ellipse
       id="path3737-1-6-6-8"
       cx="179.5387"
       cy="107.80582"
       rx="3.2127976"
       ry="2.8348215"
       style="display:inline;fill:#00ff00;stroke-width:0.26458332"
       inkscape:label="r2" />
    <ellipse
       id="path3737-1-9-5-38-5"
       cx="180.67262"
       cy="119.90105"
       rx="3.2127976"
       ry="2.8348215"
       style="display:inline;fill:#00ff00;stroke-width:0.26458332"
       inkscape:label="r3" />
    <ellipse
       id="path3737-7-8-4-1"
       cx="189.74405"
       cy="18.886904"
       rx="3.2127976"
       ry="2.8348215"
       style="display:inline;fill:#00ff00;stroke-width:0.26458332"
       inkscape:label="filterCutoff" />
    <ellipse
       id="path3737-7-8-4-9"
       cx="188.9881"
       cy="31.360119"
       rx="3.2127976"
       ry="2.8348215"
       style="display:inline;fill:#00ff00;stroke-width:0.26458332"
       inkscape:label="filterReso" />
    <ellipse
       id="path3737-7-8-4-96"
       cx="188.61012"
       cy="45.723213"
       rx="3.2127976"
       ry="2.8348215"
       style="display:inline;fill:#00ff00;stroke-width:0.26458332"
       inkscape:label="filterType" />
    <ellipse
       id="path3737-7-8-4-0"
       cx="188.23215"
       cy="61.976189"
       rx="3.2127976"
       ry="2.8348215"
       style="display:inline;fill:#00ff00;stroke-width:0.26458332"
       inkscape:label="filterEnableExt" />
    <ellipse
       id="path3737-7-8-4-6"
       cx="140.22917"
       cy="23.422619"
       rx="3.2127976"
       ry="2.8348215"
       style="display:inline;fill:#00ff00;stroke-width:0.26458332"
       inkscape:label="masterVolume" />
  </g>
</svg>
